<?xml version="1.0" encoding="UTF-8"?>
<svg id="Calque_1" data-name="Calque 1" xmlns="http://www.w3.org/2000/svg" viewBox="0 0 63.43 64.8">
  <defs>
    <style>
      .cls-1 {
        fill: #8d4a37;
      }
    </style>
  </defs>
  <path class="cls-1" d="m48.99,29.34c-.2-2.85-2.66-4.81-4.79-6.37-1.43-1.05-2.89-2.06-4.4-2.98-1.39-.84-2.66-1.86-4.06-2.68-2.77-1.63-6.01-2.22-8.75-.19-2.75,2.04-4.91,5.04-6.98,7.72-1.1,1.43-2.17,2.88-3.22,4.35-.93,1.31-1.89,2.68-2.24,4.27-.37,1.66.22,2.87,1.24,4.15,1.01,1.27,2.14,2.39,3.39,3.42,2.71,2.22,5.56,4.24,8.5,6.14,1.29.83,2.69,1.69,4.26,1.8,1.54.11,2.9-.66,4.04-1.61,2.9-2.41,5.37-5.32,7.63-8.32,1.23-1.63,2.34-3.35,3.48-5.04.93-1.38,2.03-2.91,1.9-4.67Zm-8.2,5.92c-1.56,1.94-3.3,3.67-5.03,5.46-.71.74-1.42,1.68-2.37,2.12-.89.42-1.96.24-2.87-.03-2.1-.62-3.83-2.06-5.47-3.45-.97-.82-1.92-1.66-2.86-2.53-.43-.4-.85-.8-1.27-1.21-.36-.35-.83-.7-.99-1.19-.47-1.4,1.16-2.86,1.98-3.79,1.66-1.89,3.27-3.82,4.85-5.79,1.23-1.53,2.67-3.06,4.77-3.13,2.09-.07,3.8,1.33,5.39,2.51,1.97,1.46,4.07,2.8,5.8,4.57.91.93,1.32,1.84.59,3-.76,1.2-1.61,2.35-2.5,3.46Z"/>
  <path class="cls-1" d="m38.87,28.68c-.03-.26.07-.57-.08-.81-.05-.17-.24-.26-.45-.22.14.07.3.12.44.21-.43-.32-.96-.26-1.34.1h0c-1.37.92-2.52,2.22-3.75,3.35-.84.87-1.82,1.72-2.47,2.71-.12-.4-.82,1.25-1.37.76-.04-.04-.11-.05-.13-.09-.02-.02-.03-.03-.05-.05h0s-.03-.03-.05-.04h0s-.06-.03-.09-.05c-.06-.05-.15-.12-.22-.18h0s0,0,0,0c-.08-.11-.21-.19-.31-.28h0c-.44-.34-.78-.76-1.3-.98-.11-.1-.24-.17-.36-.27h0s-.09-.06-.14-.09h0s-.06-.06-.09-.09c0,0,0,0,0,0-.24-.26-.69-.48-1.03-.72h0s-.09-.06-.13-.09h0s-.09-.06-.14-.09h0c-5.4-2.56,2.56,6.28,3.66,7.07.62.89,1.59-.04,1.94-.54.44-.54,1.4-1.11,1.57-1.74.04-.06-.02-.17-.02-.24.04.48.09.42.31.05.08-.09.53-.48.38-.43.04-.03.01-.08.02-.12.64-.21,1.56-1.72,2.2-2.4h0s.03-.03.05-.05h0c.05-.06.08-.13.14-.18h0c.08-.12.17-.24.27-.36,0,0,0,0,0,0h0c.2-.13.28-.36.42-.55.06-.06.07-.14.12-.21h0c.07-.17.28-.28.31-.41.66-.92,1.31-1.96,1.69-3.04h0Zm-.24-.45s-.02-.04-.04-.07c.01.02.02.04.04.07Zm0-.17s-.03.01-.04.02c.01,0,.03-.01.04-.02Zm-.8.06c.02-.06.09-.04.13-.06-.08,0-.14.04-.16.12,0-.02.02-.04.03-.06Zm-.06.11s-.03.04-.04.06c.02-.02.03-.04.04-.06Zm0,2.29s0,0,0,0c0,0,0,0,0,0Zm-.02,0s0,0,0,0c0,0,0,0,0,0Zm-.02,0s0,0,0,0c0,0,0,0,0,0Zm-.03,0s-.01,0-.01,0c0,0,0,0,.01,0Zm-.84-1.02s.02.06.02.1c0-.04,0-.07-.02-.1Zm-.23.36s-.04,0-.06,0c.02,0,.04,0,.06,0Zm.1-.48s.05.03.08.05c-.02-.02-.05-.04-.08-.05Zm-.1-.33s-.03,0-.04,0c.01,0,.03,0,.04,0Zm-.27-.04s-.02,0-.03,0c0,0,.02,0,.03,0Zm0,3.7s-.02.06-.03.09c.01-.03.02-.06.03-.09Zm-1-2.66s0,.02-.01.02c0,0,0-.01.01-.02Zm-.47.21c.07-.04.14-.1.21-.14-.1.05-.18.13-.28.18.02-.01.05-.03.07-.04Zm-.15.07s0,0,0,0c0,0,0,0,0,0Zm0,0s0,0,0,0c0,0,0,0,0,0Zm-.85.94c.05-.06.1-.12.16-.17-.07.06-.14.12-.18.2,0-.01.01-.02.02-.03Zm-.03.46c0,.07,0,.11-.03.13.03-.02.03-.06.03-.13Zm-.18-.2c-.05.03-.12.06-.16.1.04-.04.11-.07.16-.1Zm-.41.38s.04-.05.06-.07c-.04.05-.09.1-.13.14.02-.03.04-.05.07-.07Zm-.09.11s-.04.08-.03.13c0-.05,0-.1.03-.13Zm-.07.32s-.04.05-.06.05h0s.04-.02.06-.05Zm-.55.37s.03-.03.05-.05c-.1.11-.22.2-.32.3.09-.08.18-.17.27-.25Zm-.4,1.39s-.03-.02-.04-.04c.05.06.12.1.19.1-.05,0-.11-.03-.15-.06Zm-.68-.31s0-.02,0-.03c0,.01,0,.02,0,.03Zm.1,1s.07-.01.1-.03c-.03.02-.06.03-.1.03Zm.7-1.19s-.02.02-.03.04c0-.01.02-.02.03-.04Zm-.17.44s-.02-.03-.02-.05c0,.02.01.03.02.05Zm-.7-.2s-.02-.01-.04-.02c.01.01.03.02.04.02Zm-.41.41s0-.01.01-.02c0,0,0,.01-.01.02Zm.08-.13s0,0,0,.01c0,0,0,0,0-.01Zm-.01.03s0,0,0,.01c0,0,0,0,0-.01Zm-.01.03s0,.01,0,.02c0,0,0-.01,0-.02Zm-.02.03s0,.01-.01.02c0,0,0-.01.01-.02Zm-.07.07s-.01.01-.02.01c0,0,.01,0,.02-.01Zm.03-.02s-.01.01-.02.02c0,0,.01-.01.02-.02Zm-.11.08c-.05.03-.11.06-.16.09.05-.03.11-.06.16-.09Zm.05-.03s-.01,0-.02.01c0,0,.01,0,.02-.01Zm-.03.02s-.02.01-.03.02c0,0,.02-.01.03-.02Zm-.33.8s.02,0,.02-.01c-.06.03-.13.05-.2.06.06,0,.13-.03.18-.04Zm.12-.65c-.02.06-.08.11-.05.17-.03-.06.04-.11.05-.17Zm-.51.54s.03,0,.04,0c-.07,0-.15,0-.22,0,.06,0,.12,0,.18,0Zm-.49-.27c.05-.09-.1.08-.1.1,0-.04.03-.07.1-.1Zm.02.23s-.05.01-.08.02h0s.05-.01.08-.02Zm-1.36-1.35s0,0,0,0h0Zm-1.99-1.39s0,0,0,0c0,0,0,0,0,0Zm.01,0s0,0,0,0c0,0,0,0,0,0Zm.01,0s0,0,0,0c0,0,0,0,0,0Zm.02,0s0,0,0,0c0,0,0,0,0,0Zm.02,0s0,0,0,0c0,0,0,0,0,0Zm.06.01s0,0,0-.01c0,0,0,0,0,.01Zm.15.32s0,0,0,0c0,0,0,0,0,0Zm-.02-.02s0,0,0,0c0,0,0,0,0,0Zm-.02-.03s0,0,0,0c0,0,0,0,0,0Zm-.02-.04s0,0,0-.01c0,0,0,0,0,.01Zm-.02-.04s0,0,0-.02c0,0,0,.01,0,.02Zm-.02-.05s0-.01,0-.02c0,0,0,.01,0,.02Zm-.02-.06s0-.02-.01-.03c0,0,0,.02.01.03Zm-.05-.1s0,0,0,0c0,0,0,0,0,0Zm-.02,0s0,0,0,0c0,0,0,0,0,0Zm1.38,1.06s0,0,0,0c0,0,0,0,0,0Zm.02.04s0,0,0,0c0,0,0,0,0,0Zm.02.04s0,0,0,0c0,0,0,0,0,0Zm1.14,4.88s.08.07.13.09c-.05-.02-.09-.05-.13-.09Zm.17.11s.07.02.1.02c-.03,0-.07-.01-.1-.02Zm.38.04s-.03-.01-.05-.02c.03,0,.07.02.09.05-.01-.01-.03-.02-.04-.03Zm.09.11s0,.04,0,.05c0-.04-.01-.09-.04-.12.02.02.03.04.03.07Zm.22.48s-.04-.05-.07-.07c.04.02.08.07.1.11,0-.01-.02-.03-.03-.04Zm.11.07c.08,0,.15,0,.21,0-.07,0-.14,0-.21,0Zm2.05-1.39s-.03.03-.04.04c.08-.08.16-.16.24-.24-.06.06-.13.13-.19.19Zm.27-.27c.08-.1.15-.22.22-.32-.08.1-.15.21-.22.32Zm.45-.54s.04-.04.06-.06c-.02.02-.04.04-.06.06Zm.23-4.49s.03,0,.04,0c-.01,0-.03,0-.04,0Zm.04,3.91c.07.04.13.15.21.14-.08,0-.14-.1-.21-.14Zm.59-4.44s.04-.1.06-.14c-.08.13-.04.17.09.17-.04,0-.09,0-.15-.02Zm.58,3.38c-.09.09-.18.18-.25.28.14-.18.3-.35.48-.5-.08.07-.15.14-.22.22Zm.25-.23s.03-.02.05-.03c-.02,0-.03.02-.05.03Zm.08-.04s.06-.02.08-.03c-.03.01-.06.02-.08.03Zm.2-.18c0-.08.02-.13.09-.18-.06.05-.08.11-.09.18Zm.44-.63s.03,0,.04-.02c-.01,0-.03.01-.04.02Zm.11-.07s.02-.02.03-.03c0,.01-.02.02-.03.03Zm.58-4.65c-.21.14-.35.36-.44.59.12-.27.29-.54.57-.65-.05.02-.09.04-.13.07Zm.51,3.37s-.01.03-.02.04c0-.01.01-.03.02-.04Zm.05-.13c.02-.06.04-.12.07-.18-.02.06-.05.12-.07.18Zm.08-.2s.04-.09.06-.13c-.02.04-.04.08-.06.13Zm.18-.15s.04,0,.07,0c-.02,0-.04,0-.07,0Zm.52-.62c-.16.17.03.03,0-.09,0,.03,0,.06,0,.09Zm.37-.73c.04-.07.08-.14.1-.22-.02.08-.05.15-.1.22Zm.1-.24s0,0,0,0c0,0,0,0,0,0Zm.07-.21s0,0,0,0c0,0,0,0,0,0Zm.48-.52c-.08.08-.22.11-.26.23.53-.47.55-1.47.26-.23Zm.26-.79c-.04-.07-.08-.15-.13-.22.09.2.14.25.27.05-.05.06-.1.11-.15.17Zm.19-.23s0,0,0,0c.02-.03.04-.05.06-.08-.02.03-.04.05-.06.08Z"/>
</svg>