<?xml version="1.0" encoding="UTF-8"?>
<svg id="Calque_1" data-name="Calque 1" xmlns="http://www.w3.org/2000/svg" viewBox="0 0 63.43 64.8">
  <defs>
    <style>
      .cls-1 {
        fill: #8e1818;
      }
    </style>
  </defs>
  <path class="cls-1" d="m11.95,49.81c-.15,0-.29-.06-.4-.17-.15-.15-.21-.37-.14-.58l2.44-7.74c-1.61-2.69-2.47-5.77-2.47-8.93,0-9.6,7.81-17.41,17.41-17.41,7.35,0,13.95,4.65,16.41,11.57.11.3-.05.62-.35.73-.3.1-.62-.05-.73-.35-2.3-6.47-8.46-10.81-15.33-10.81-8.97,0-16.27,7.3-16.27,16.27,0,3.03.84,5.99,2.43,8.55.09.14.11.31.06.47l-2.19,6.94,6.94-2.18c.16-.05.33-.03.47.06,2.57,1.59,5.52,2.43,8.55,2.43.32,0,.57.26.57.57s-.26.57-.57.57c-3.15,0-6.23-.85-8.93-2.46l-7.74,2.44c-.06.02-.12.03-.17.03Z"/>
  <path class="cls-1" d="m51.48,49.81c-.06,0-.12,0-.17-.03l-5.36-1.69c-1.91,1.12-4.06,1.71-6.26,1.71-6.82,0-12.36-5.55-12.36-12.36s5.55-12.36,12.36-12.36,12.36,5.55,12.36,12.36c0,2.2-.59,4.36-1.72,6.26l1.69,5.36c.06.2,0,.43-.14.58-.11.11-.25.17-.4.17Zm-11.79-23.58c-6.18,0-11.22,5.03-11.22,11.22s5.03,11.22,11.22,11.22c2.07,0,4.1-.58,5.88-1.68.14-.09.31-.11.47-.06l4.56,1.44-1.44-4.56c-.05-.16-.03-.33.06-.47,1.1-1.78,1.68-3.81,1.68-5.88,0-6.19-5.03-11.22-11.22-11.22Z"/>
</svg>