<?xml version="1.0" encoding="UTF-8"?>
<svg id="Calque_1" data-name="Calque 1" xmlns="http://www.w3.org/2000/svg" viewBox="0 0 63.43 64.8">
  <defs>
    <style>
      .cls-1 {
        fill: #d44e1d;
      }
    </style>
  </defs>
  <g>
    <path class="cls-1" d="m45.54,33.4c-1.87-3.03-3.96-5.91-6.1-8.76-.87-1.15-1.66-2.38-2.58-3.49-.89-1.08-2.06-2.33-3.49-2.63-2.95-.61-4.98,3.21-6.45,5.1-2.23,2.85-4.5,5.66-6.62,8.6-1.04,1.44-2.05,2.9-3.04,4.38-.9,1.36-1.9,2.7-2.71,4.11-.66,1.17-.99,2.54-.09,3.67.95,1.2,2.58,1.49,4.03,1.51,1.75.03,3.51-.16,5.26-.21,1.82-.05,3.64-.09,5.46-.12,3.68-.06,7.37-.1,11.04-.34,1.82-.12,3.67-.18,5.47-.43,1.37-.19,3.13-.69,3.65-2.15.51-1.41-.33-3.01-.93-4.26-.83-1.74-1.89-3.36-2.9-5Zm-9.99,7.39c-2.32-.1-4.65-.21-6.98-.13-2.25.08-4.47.45-6.72.29-.46-.03-1.26,0-1.28-.63-.03-.77,1.09-1.72,1.51-2.29,1.37-1.83,2.67-3.72,4.06-5.54,1.29-1.69,2.62-3.35,3.84-5.09.8-1.15,1.96-2.49,3.42-1.46.71.5,1.26,1.26,1.84,1.9.77.85,1.52,1.7,2.25,2.58,1.4,1.72,2.68,3.52,3.98,5.31.86,1.18,3.15,3.98.6,4.69-.89.25-1.85.2-2.77.27-1.25.09-2.5.11-3.76.09Z"/>
    <path class="cls-1" d="m50.3,30.89c-.98-2.26-2.44-4.26-4.01-6.14-.82-.99-3.67-5.22-5.27-3.26-.68.83.03,2.01.5,2.75.69,1.08,1.47,2.1,2.17,3.18,1.28,1.99,2.53,4.19,4.27,5.83.7.66,1.95,1.31,2.64.24.5-.77.02-1.85-.3-2.59Z"/>
    <path class="cls-1" d="m14.86,30.77c1.02-2.19,2.5-4.12,4.08-5.93.87-.99,3.89-5.25,5.44-3.21.62.81-.04,1.92-.51,2.63-.68,1.03-1.48,1.99-2.18,3.01-1.37,2-2.7,4.19-4.49,5.85-.69.64-1.85,1.31-2.61.37-.64-.79-.09-1.94.27-2.72Z"/>
    <path class="cls-1" d="m26.56,47.92c2.78-.62,5.62-.45,8.44-.28,1.32.08,5.03-.13,4.64,2.14-.2,1.15-1.61,1.26-2.54,1.29-1.33.03-2.65.09-3.98.16-1.5.08-3.01.15-4.51.14-.98,0-2.03.02-2.99-.26-.84-.24-1.73-.94-1.33-1.93.34-.84,1.49-1.08,2.28-1.26Z"/>
    <path class="cls-1" d="m53.92,43.48c-.66-1.22-2.6-.98-3.38,0-.47.6-.36,1.47.16,2,.59.59,1.62.8,2.38.47.88-.38,1.29-1.64.84-2.47Z"/>
    <path class="cls-1" d="m34.3,14.26c-.66-1.22-2.6-.98-3.38,0-.47.6-.36,1.47.16,2,.59.59,1.62.8,2.38.47.88-.38,1.29-1.64.84-2.47Z"/>
    <path class="cls-1" d="m13,44.25c-.66-1.22-2.6-.98-3.38,0-.47.6-.36,1.47.16,2,.59.59,1.62.8,2.38.47.88-.38,1.29-1.64.84-2.47Z"/>
  </g>
  <g>
    <path class="cls-1" d="m37.74,35.13c0-.11.02-.22.02-.34,0-.11-.01-.21-.02-.32-.02-.45-.1-.88-.23-1.31,0-.02,0-.03-.01-.05-.02-.05-.04-.1-.05-.16-.07-.17-.14-.33-.21-.5-.02-.04-.04-.08-.06-.12-.09-.16-.18-.32-.27-.48,0,0-.01-.01-.02-.02-.17-.21-.33-.43-.5-.63-.1-.12-.23-.23-.34-.35-.02-.02-.04-.05-.06-.07,0,0-.02-.01-.02-.02-.08-.06-.15-.13-.23-.19,0,0-.02-.01-.02-.02-.12-.09-.25-.18-.37-.27,0,0-.01-.01-.02-.02-.15-.08-.3-.17-.46-.25-.05-.03-.1-.05-.15-.08-.17-.07-.33-.14-.5-.21-.04-.01-.08-.03-.12-.04-.24-.06-.48-.12-.73-.18-.08-.02-.17-.03-.25-.05h0s0,0,0,0c-.01,0-.03,0-.04,0-.08-.02-.17-.03-.25-.05h-.46s.03.01.04.02c.02.03.04.04.05.04-.01,0-.03-.01-.05-.04-.01,0-.03-.01-.04-.02h-.33c-.12.03-.23.1-.36.06,0,0-.02,0-.03,0-.16.03-.31.07-.47.1-.03,0-.06.01-.08.02-.02,0-.04,0-.06,0-.03.01-.06.02-.08.03-.16.05-.32.1-.47.16-.17.07-.35.14-.51.24-.27.15-.53.32-.78.49-.16.11-.3.24-.44.37-.18.18-.36.36-.5.57-.22.31-.42.63-.6.96-.22.4-.34.84-.43,1.28-.02.09-.03.18-.05.27,0,.03.04.08.03.11-.02.08-.05.16-.08.24v.5s.01-.03.02-.04c0,0,0,0,0,0,0,0,.01-.01.02-.01,0,0-.01.01-.02.01,0,0,0,0,0,0,0,.01-.01.03-.02.04v.33c.01.07.03.14.04.21,0,.01,0,.03,0,.04.04.22.06.44.12.65.06.24.16.48.23.72,0,0,.01.01.02.02.14.38.35.72.58,1.05.31.43.68.81,1.1,1.13.49.37,1.03.66,1.62.84.31.1.62.18.94.2.32.02.64.03.96.04.11,0,.22-.03.33-.04.02,0,.04,0,.06,0,.19-.04.39-.08.58-.12.03,0,.06-.01.08-.02,0,0-.01-.01-.02-.02,0,0,0,0-.01,0s0,0-.01,0c0,0,0,0,.01,0s0,0,.01,0c0,0,.01,0,.02.02.02,0,.04,0,.06,0l.08-.03c.06-.01.11-.03.17-.04l.1-.03c.17-.07.35-.15.52-.22.05-.02.1-.05.14-.07.03-.02.06-.04.09-.06,0,0,.01-.01.02-.02h0s.06-.03.09-.04h0s0,0,.01,0c.02-.01.03-.02.05-.04.02,0,.04-.02.06-.03.05-.03.1-.05.15-.08,0,0,.01-.02.02-.02,0-.02,0-.03,0-.05,0,.01,0,.03,0,.05,0,0,.01,0,.02,0,.03-.03.06-.05.09-.08,0,0,0,0-.01,0,0,0,0,0,.01,0l.1-.07.06-.06s.07-.04.1-.07c0,0,.02-.01.02-.02h0s.06-.06.09-.09c.05-.04.09-.07.14-.11,0,0,.02-.01.02-.02.04-.04.08-.08.13-.13.05-.05.1-.1.15-.15.09-.1.18-.21.27-.31,0-.01-.01-.02-.01-.03,0,0,0,.02.01.03.02-.02.04-.04.06-.06.03-.04.06-.08.09-.12l.06-.06s.05-.07.07-.1c.03-.03.05-.06.08-.09,0,0,0-.01,0-.02,0,0,.02-.01.02-.02.03-.05.05-.1.08-.15,0-.02.02-.04.03-.06-.02,0-.04.01-.06.02.02,0,.04-.01.06-.02.01-.01.03-.03.04-.04,0,0,0-.01,0-.02,0,0,.01,0,.02,0,0-.03.02-.05.03-.08l.08-.11c.03-.06.05-.12.08-.18.07-.15.14-.31.2-.46.01-.04.03-.08.04-.12.01-.06.03-.12.04-.19,0-.02.01-.04.02-.06,0-.03.01-.06.02-.08,0-.02,0-.04.01-.06.03-.13.06-.25.09-.38.01-.07.02-.13.02-.2,0-.02.01-.04.02-.06,0-.05.02-.11.03-.16,0,0,.03,0,.04,0v-.06s-.04-.01-.04-.02Zm-4.02,4.74s0,0,.01,0c0,0-.01,0-.01,0Zm1.06-1.16h0s.02-.02.03-.03c0,.01-.02.02-.03.03Zm.58.43s.01-.01.02-.02c0,0-.01,0-.02.02Zm.06-.02s0,0,.01,0c0,0,0,0-.01,0Zm.98-2.03s0,0,0,0c0,0,0,0,0,0,0,0,0,0,0,0,0,0,0,0,0,0Zm.05-.15s0-.01,0-.02c0,0,0,.01,0,.02,0,.02.02.03.03.05,0-.02-.02-.03-.03-.05Zm.19-.46s-.01.01-.02.02c0,.03-.02.05-.03.08-.01.04-.03.07-.04.11-.04.07-.07.14-.11.21h0s-.04.07-.05.1c0,.01-.01.03-.02.04,0,0,0,.02,0,.02,0,0,.01,0,.02.01,0,0,0,0-.02-.01,0,0,0-.02,0-.02-.02.04-.04.07-.06.11,0,.01-.02.03-.02.04.03-.01.06-.03.09-.04-.03.01-.06.03-.09.04-.06.09-.12.18-.18.27,0,0,0,.02,0,.02,0,.02.02.03.03.05h0s-.02-.03-.03-.05c0,.02-.01.04-.02.06,0,0,.01,0,.02,0,0,0-.01,0-.02,0-.01,0-.03,0-.04,0-.04.05-.08.1-.12.14-.02.03-.04.06-.06.08l-.39.39s-.04.03-.06.04c0,0-.01.01-.02.02-.02.02-.04.03-.06.05,0,.01,0,.03,0,.04l-.11.14h0s.07-.09.11-.14v-.04s-.03.02-.04.03c-.02.02-.03.03-.05.05-.03.02-.06.04-.09.06-.09.06-.18.12-.27.18-.01.03-.03.06-.04.09h0s.03-.06.04-.09c-.01,0-.03.02-.04.02-.02.01-.04.03-.06.04-.02,0-.04.02-.06.03,0,0-.01,0-.02.01,0,0,0,0,0,0-.02.01-.04.03-.06.04-.08.04-.17.08-.25.12-.02,0-.04.02-.06.03,0,0-.02.01-.02.02-.02,0-.04.02-.06.03-.07.03-.14.06-.21.08-.05.02-.1.04-.15.06h-.04s0,0,0,0c-.01,0-.03.01-.04.02-.06.01-.11.03-.17.04-.01.02-.03.04-.04.06-.01.01-.02.03-.04.04,0-.01-.02-.03-.03-.04,0,.01.02.03.03.04.01-.01.02-.03.04-.04l.04-.06s-.03,0-.04.01c-.03,0-.06.01-.09.02-.07.02-.14.03-.2.05-.03,0-.06.01-.09.02-.14.02-.28.03-.41.05-.02,0-.04,0-.06,0-.19,0-.37,0-.56.01-.03,0-.07-.01-.1-.02-.13-.01-.26-.03-.4-.04-.04,0-.08-.01-.12-.02-.23-.07-.46-.14-.69-.21-.36-.12-.69-.3-1-.52-.03-.01-.05-.03-.08-.04-.04-.04-.09-.07-.13-.11,0,0-.02-.01-.02-.02-.03-.02-.05-.04-.08-.07,0,0-.02-.01-.02-.02-.31-.25-.58-.55-.81-.88-.01,0-.02,0-.03,0,0,0,0,0,.01-.01-.1-.18-.21-.36-.31-.54,0,0-.01-.02-.02-.02-.09-.23-.19-.45-.27-.69-.05-.15-.09-.31-.13-.46,0-.04-.01-.08-.02-.12-.02-.27-.06-.54-.05-.8,0-.23.04-.45.07-.68,0-.02,0-.04-.01-.06.01-.04.03-.08.04-.12.05-.19.09-.39.15-.58.16-.49.41-.94.73-1.34.23-.28.47-.55.76-.76l.02-.02c.18-.12.36-.26.56-.36.26-.13.54-.25.81-.36.17-.07.35-.1.52-.15l.13-.04c.31-.01.63-.04.94-.04.2,0,.4.04.6.06.04,0,.08.01.12.02.58.12,1.12.34,1.62.67.11.08.22.16.34.24,0,0,.02.01.02.02.3.25.56.53.79.84.38.51.62,1.07.77,1.69,0,.03.02.07.02.1,0,.04.01.08.02.12.01.13.03.26.04.4,0,.03.01.07.02.1,0,.19,0,.37,0,.56,0,.02-.02.04-.02.06-.01.15-.03.29-.04.44,0,.03-.01.06-.02.08-.01.07-.03.14-.04.21,0,.02-.01.04-.02.07,0,.01,0,.03,0,.04h0c-.02.06-.03.11-.05.17h0c-.02.05-.03.1-.05.15h0s-.02.06-.03.08c0,.01-.01.03-.02.04,0,0,0,.01-.01.02,0,.03-.02.05-.03.08Zm-.24.6s0,0,0,0c0,0,0,0,0,0Zm.62.25s0,0,0,0,0,0,.01,0c0,0,0,0-.01,0,0,0,0,0,0,0,0,0,0,0,0,.01,0,0,0,0,0-.01Z"/>
    <path class="cls-1" d="m36.03,37.53s.03,0,.04,0c0-.02.01-.04.02-.06,0,0,0-.02,0-.02-.02.03-.04.06-.06.08Z"/>
    <path class="cls-1" d="m34.34,34.77c-.11-.02-.23-.02-.35-.02-.44,0-.87,0-1.31,0h-.11v-.12c0-.7,0-1.39,0-2.09,0-.18-.04-.34-.18-.46,0,0,0-.01-.01-.02-.14,0-.28-.02-.42-.02,0,0-.02,0-.02.02-.07.12-.15.23-.14.39,0,.84,0,1.68,0,2.53,0,.02,0,.05,0,.07-.04.22.11.43.3.47.07.01.15,0,.22,0,.63,0,1.26,0,1.88,0,.07,0,.14,0,.2-.03.17-.08.25-.21.23-.4-.01-.16-.12-.29-.29-.32Z"/>
  </g>
</svg>