<?xml version="1.0" encoding="UTF-8"?>
<svg id="Calque_1" data-name="Calque 1" xmlns="http://www.w3.org/2000/svg" viewBox="0 0 63.43 64.8">
  <defs>
    <style>
      .cls-1 {
        fill: #8d4a37;
      }
    </style>
  </defs>
  <path class="cls-1" d="m34.55,37.79c.07.03.13.06.2.09.09,0,.17,0,.26,0,.04.02.09.03.13.05.25.09.49.17.74.26.06.02.12.04.19.07v.02c.12.04.26.07.39.11.04,0,.09,0,.13,0,.26-.01.53-.03.79-.04.02-.01.04-.02.06-.03.04-.01.09-.03.13-.04.37-.16.74-.31,1.11-.47.15-.1.31-.21.46-.31.26-.23.52-.45.78-.68.05-.08.1-.17.15-.25.06-.08.11-.16.17-.24.03-.03.05-.06.08-.09.11-.42.22-.83.33-1.25.02-.02.05-.04.07-.07,0-.02-.01-.04-.02-.07.03-.09.06-.17.09-.26,0-.02,0-.04,0-.07.02-.04.04-.09.05-.13,0-.04.01-.09.02-.13.02-.02.03-.05.05-.07l.02-.13.05-.07s0-.04.02-.06c.01-.04.03-.09.04-.13.02-.09.05-.17.07-.26.03-.06.05-.13.08-.19l.25-.39.25-.34c.61-.74,1.36-1.28,2.25-1.63.02-.01.03-.02.05-.02.03-.02.05-.03.08-.05.04-.05.09-.09.13-.14.07-.05.13-.09.2-.14.26-.24.52-.48.78-.73.05-.09.1-.17.14-.26.16-.44.31-.88.47-1.32.04-.44.08-.87.12-1.31-.17-.44-.35-.88-.52-1.32-.05-.08-.1-.17-.15-.25-.22-.35-.44-.71-.66-1.06-.02-.04-.04-.09-.06-.13-.02-.04-.04-.09-.06-.13-.07-.31-.14-.61-.21-.92-.02-.48-.03-.97-.05-1.45.04-.44.09-.87.13-1.31.09-.44.18-.88.27-1.32-.03-.37-.06-.74-.08-1.11-.08-.2-.17-.4-.25-.6-.02-.04-.04-.09-.06-.13-.15-.26-.31-.53-.46-.79-.05-.07-.09-.13-.14-.2-.02-.02-.04-.04-.06-.06-.07-.05-.13-.09-.2-.14h0c-.09-.06-.18-.13-.27-.2-.18-.1-.35-.21-.53-.31l-.98-.29c-.09-.03-.18-.07-.27-.1-.44-.16-.87-.32-1.31-.48-.02,0-.04,0-.07.01-.04-.02-.09-.05-.13-.07-.33-.25-.65-.49-.98-.74-.05-.04-.09-.07-.14-.11h-.03s-.03,0-.03,0c-.09-.11-.18-.22-.27-.33-.04-.04-.09-.09-.13-.13l-.2-.27c-.09-.17-.18-.35-.27-.52-.02-.04-.04-.08-.06-.12-.04-.07-.09-.14-.13-.2-.02,0-.03,0-.05,0-.07-.11-.13-.23-.2-.34,0-.04,0-.08,0-.12-.11-.17-.23-.35-.34-.52-.17-.16-.34-.31-.51-.47-.07-.05-.14-.1-.21-.15-.06-.06-.13-.11-.19-.17-.22-.07-.43-.14-.65-.21-.04-.02-.09-.03-.13-.05-.6-.21-1.22-.22-1.84-.22-.04,0-.09.01-.13.02-.04,0-.09,0-.13-.01-.13.07-.27.13-.4.2-.04,0-.08,0-.12.01-.02.02-.05.04-.07.05-.09.04-.17.08-.26.12,0,0,0,0,0,0-.07.03-.13.05-.2.08,0,.02-.01.04-.01.06-.09.05-.18.09-.27.14-.08.05-.17.09-.25.14-.02.02-.04.04-.07.06-.07.03-.13.05-.2.08-.11.07-.22.13-.33.2l-.09-.02s-.07.06-.11.09c-.02.02-.05.03-.07.05-.83.3-1.67.47-2.55.38-.23-.01-.46,0-.68-.04-.65-.15-1.3-.32-1.95-.48-.44.04-.88.09-1.32.13v.02s-.04.04-.07.05c-.02,0-.04,0-.06.02-.02,0-.04,0-.06-.01,0,.02,0,.04,0,.06-.13.07-.26.14-.39.21-.02.02-.05.03-.07.05l-.2.14c-.15.09-.3.18-.45.27-.16.17-.31.35-.47.52-.06.13-.13.26-.19.39-.06.18-.12.35-.18.53-.03.11-.05.22-.08.33-.02.02-.05.05-.07.07,0,.04.01.09.02.13,0,.04-.01.08-.02.12-.04.09-.08.18-.11.28,0,.02,0,.04,0,.07-.02.04-.04.09-.06.13-.03.04-.05.09-.08.13-.07.15-.13.31-.2.46-.16.33-.32.65-.47.98-.04.07-.09.13-.13.2-.02.02-.04.04-.06.06-.04.02-.08.05-.12.07,0,.04-.01.08-.02.12l-.19.27-.19.14s-.04.08-.06.13l-.14.19c-.11.11-.22.22-.33.32-.06.05-.12.1-.19.15-.13.11-.27.23-.4.34l-.07.05s-.08.04-.12.06c-.02.02-.04.05-.07.07l-.2.14c-.06.03-.13.05-.19.08-.02.02-.05.04-.07.05h0c-.09.04-.18.09-.27.13h-.03s-.03.01-.03.01c-.02.02-.05.03-.07.05,0,0,0,0,0,0-.09.04-.17.09-.26.13-.04,0-.08,0-.13.01-.02.04-.05.08-.07.11-.07.05-.13.09-.2.14-.02,0-.04,0-.06,0-.16.24-.31.47-.47.71l-.27.53c-.01.09-.03.18-.04.26,0,.04-.01.08-.02.12-.01.03-.03.05-.04.08,0,.05,0,.09-.01.13-.02,0-.04,0-.06,0v.19s0,.04,0,.07c-.02.13-.04.26-.07.39,0,.02-.01.04-.02.06,0,.15.01.31.02.46.01.07.03.13.04.2.05.17.1.35.15.52.02.05.03.09.05.14.03.06.05.13.08.19.04.07.09.13.13.2l.52.92c.1.15.19.31.29.46.04.09.08.18.11.27,0,.04,0,.08.01.13.02.05.04.09.06.14.04.11.07.22.11.33,0,.06.01.13.02.19l.05.13c0,.11.01.22.02.33.02.09.03.18.05.26,0,.22,0,.44,0,.65-.02.09-.03.18-.05.26,0,.13,0,.26-.01.39-.02.02-.03.05-.05.07,0,.07-.02.13-.03.2-.01.04-.03.09-.04.13-.03.13-.06.26-.09.38-.02.02-.03.05-.05.07,0,.04-.01.09-.02.13-.04.11-.08.22-.12.33,0,.04-.01.08-.02.12-.02.03-.03.05-.05.08,0,.02,0,.04,0,.07-.03.04-.06.09-.09.13,0,.07.01.13.02.2l-.02.13c0,.22,0,.44,0,.66,0,.06.01.13.02.19,0,.04-.01.09-.02.13.03.04.06.09.09.13,0,.02,0,.05,0,.07.02.02.03.05.05.07,0,.04.01.09.02.13.02.02.03.04.05.06l.4.92s.05.05.08.07c-.01.02-.02.04-.01.06.02.04.04.08.06.13.04.03.08.05.13.08.04.09.09.17.13.26.06.06.11.13.17.19.03.03.06.05.09.08.05.06.09.13.14.19.06.02.13.05.19.07.09.07.17.13.26.2.02.02.05.03.07.05.02.01.04.02.06.02.07.03.14.07.21.1.07.03.14.06.21.08h0c.15.05.3.1.45.15.24.04.48.07.72.11.06,0,.13.01.19.02.04.02.09.03.13.05.09.03.17.06.26.09.17.06.35.13.52.19.04.02.09.04.13.07h0s.05.03.07.05c.04.03.08.05.12.08.07.06.14.13.22.19.04,0,.08,0,.13.01.01.01.03.03.04.04.03.05.06.09.09.14.02,0,.04,0,.06,0,.09.07.18.13.26.2.13.13.26.27.39.4.11.17.23.35.34.52.03.02.05.05.08.07l.23.4c0,.06,0,.13.01.19.07.11.13.22.2.33.02.02.03.05.05.07l.06.26.09.13s.03.04.05.07h0c.04.07.09.14.13.2.02.04.04.08.07.12.11.11.22.23.33.34.06.04.13.08.19.12.03.06.05.12.08.18l.13.02c.2.08.39.16.59.24.02,0,.04.01.06.02.02.02.05.04.07.05.02,0,.04.01.06.02l.13.04s.08.02.13.03c.05.04.09.07.14.11.04,0,.09,0,.13,0,.11.03.21.06.32.09.02.02.05.03.07.05.04,0,.09.01.13.02.04.02.09.04.13.05.06,0,.13.02.19.03.05.01.09.02.14.04.07.03.13.06.2.09.22,0,.44-.01.66-.02.09,0,.18,0,.26,0,.13,0,.26.02.39.02l.4-.21c.07-.03.14-.06.21-.09.02-.02.04-.03.05-.05.13-.11.27-.22.4-.32.13-.09.26-.18.39-.27.06-.04.13-.08.19-.13l.07-.06c.31-.15.61-.3.92-.45.35-.07.7-.15,1.05-.22.04-.02.09-.03.13-.05h.13c.31,0,.61,0,.92,0,.07.02.13.03.2.05Zm-.47-2.62s-.04,0-.05.02c-.04.01-.09.03-.13.04-.13.03-.26.06-.39.09-.02,0-.04-.02-.07-.03-.04.02-.09.05-.13.07-.42.05-.83.1-1.25.15-.02,0-.04,0-.06,0,0,.02,0,.04,0,.06-.39.02-.78.04-1.18.06-.39-.04-.79-.09-1.18-.13-.28-.06-.56-.11-.84-.17-.09,0-.18-.02-.27-.03-.35-.11-.7-.22-1.05-.32-.07-.02-.13-.05-.2-.07-.22-.11-.44-.21-.66-.32l-1.11-.6c-.11-.06-.21-.12-.32-.17-.05-.05-.1-.09-.15-.14-.04,0-.08-.01-.13-.02-.15-.13-.31-.27-.46-.4-.02-.02-.05-.03-.07-.05h0s-.09-.08-.14-.12c-.08-.05-.17-.1-.25-.15-.09-.09-.18-.17-.27-.26-.11-.13-.22-.26-.33-.39-.13-.11-.26-.22-.39-.33-.05-.09-.1-.17-.14-.26-.02,0-.05-.01-.07-.02-.09-.11-.18-.23-.27-.34,0,0,0,0,0,0-.06-.08-.13-.17-.19-.25-.02-.04-.04-.07-.06-.11-.24-.35-.47-.7-.71-1.06-.02-.04-.04-.09-.07-.13l-.22-.46c-.06-.13-.12-.27-.17-.4-.07-.2-.13-.39-.2-.59-.02-.02-.05-.05-.07-.07-.02-.07-.05-.13-.07-.2-.08-.35-.17-.7-.25-1.04l-.15-.98c-.02-.33-.05-.66-.07-.99v-.13c0-.18.01-.35.02-.53.02-.44.04-.87.07-1.31.11-.44.22-.88.33-1.32.04-.2.07-.41.13-.61.07-.22.17-.43.26-.64l.05-.07h0c.15-.31.31-.61.46-.92.07-.13.13-.26.2-.39.35-.5.71-1,1.06-1.5.08-.09.16-.18.24-.27.2-.22.41-.43.61-.65l.31-.25c.38-.29.75-.58,1.13-.88l.33-.2s.04,0,.06,0c.15-.09.31-.18.46-.26.28-.13.57-.27.85-.4.18-.07.35-.14.53-.2.02-.02.05-.03.07-.05.24-.06.48-.13.72-.19.39-.09.79-.19,1.18-.28.04,0,.09,0,.13,0,0-.02,0-.03,0-.05.44-.02.87-.04,1.31-.06.07,0,.13-.01.2-.02.11,0,.22,0,.33,0,.22,0,.44.01.65.02.04.02.09.05.13.07l.33-.02s.09.01.13.02c.2.04.4.08.59.11.07,0,.13,0,.2.01.02.02.04.05.07.07.02,0,.04-.01.07-.02.02,0,.04,0,.07,0,.07.02.13.05.2.07l.19.02.33.11c.17.05.35.1.52.15,0,.02,0,.04.01.05.04,0,.08,0,.12,0,.02.01.03.02.05.01.03.02.05.03.08.05.29.13.58.26.87.39.06.03.12.06.18.08.13.07.26.13.38.2.03.02.05.03.08.05.06.03.13.06.19.08.07.05.14.1.21.16,0,.02.02.03.04.03.05.03.1.06.15.08.07.06.13.12.2.18.02,0,.04,0,.06,0,.04.02.09.05.13.07.18.15.35.3.53.45,0,.02,0,.04,0,.06h.03s.03,0,.03,0c.02,0,.04.02.06.02.09.09.18.18.26.26.07.08.14.16.2.25l.38.34c.09.09.19.19.28.28.04.08.09.16.13.24.04.02.08.05.12.07.09.11.18.22.26.34.07.13.14.26.21.38.11.17.22.35.33.52.06.07.12.14.18.21.05.09.09.17.14.26.07.15.14.31.21.46.02.02.04.04.05.07.03.07.05.13.08.2-.01.02-.02.04,0,.06.02,0,.04.01.06.01,0,.04.01.08.02.12.02.02.03.04.05.07.05.11.1.22.15.33.06.2.12.39.18.59.02.05.03.09.05.14.03.11.05.22.08.32,0,.04.01.09.02.13.02.03.03.05.05.08.03.17.05.34.08.51.02.07.04.13.06.2,0,.07,0,.13-.01.2.03.13.06.26.09.39,0,0,0,0,0,0,.01.11.03.22.04.33v1.7c-.02.07-.04.13-.06.2,0,.07.01.13.02.2-.03.22-.06.44-.08.65-.02.07-.03.13-.05.2-.02.09-.04.18-.07.27,0,.04,0,.09,0,.13-.02.07-.04.13-.05.2,0,.04-.02.08-.02.13-.04.11-.07.22-.11.33-.04.11-.09.22-.13.33-.02.07-.05.13-.07.2,0,.04,0,.08,0,.13-.02.02-.03.04-.04.07,0,.04-.01.09-.02.13-.02.02-.03.04-.05.07,0,.04-.01.08-.02.12-.02.02-.03.05-.05.07-.01.02-.02.04-.01.06-.02.02-.03.05-.05.07-.05.11-.1.22-.14.33l-.05.13c-.05.07-.1.14-.14.2-.02.06-.05.13-.07.19-.02.04-.04.09-.06.13-.02.04-.04.09-.06.13l-.13.2c-.11.15-.21.31-.32.46-.05.07-.09.13-.14.2-.07.11-.13.21-.2.32-.07.09-.14.18-.2.27-.31.33-.61.65-.91.98l-.33.27c-.24.2-.48.39-.72.59h-.18c0,.05-.01.09-.02.14-.02,0-.04,0-.05,0-.02.03-.05.06-.07.08-.09.06-.18.11-.27.17,0,0,0,0,0,0l-.33.2s-.09.06-.13.08c-.02.02-.05.03-.07.05-.02,0-.04.01-.06.02-.02.02-.05.03-.07.05-.03,0-.06.01-.09.02-.06.02-.11.04-.17.06,0,.02,0,.03,0,.05-.2.09-.39.18-.59.28-.03.02-.05.04-.08.05-.08.03-.17.06-.25.09-.02.02-.05.03-.07.05-.09.03-.17.05-.26.08-.02,0-.04-.02-.07-.02-.02.01-.04.01-.06.01,0,.02,0,.04-.01.05-.17.05-.35.1-.52.15-.03.02-.05.03-.08.05Z"/>
  <path class="cls-1" d="m47.23,48.07c-.19-.44-.38-.88-.57-1.32,0-.02-.01-.05-.02-.07-.02-.02-.03-.05-.05-.07-.03-.07-.06-.13-.08-.2-.11-.26-.22-.52-.32-.79-.22-.5-.44-1.01-.66-1.51h0s-.03-.05-.05-.07c-.18-.44-.36-.87-.54-1.31-.02-.02-.03-.05-.05-.07,0-.04-.01-.08-.02-.12-.02-.02-.04-.05-.05-.07-.01-.02-.02-.03-.01-.05l-.05-.08c-.05-.13-.1-.26-.15-.39-.02-.02-.03-.05-.05-.07-.05-.13-.1-.26-.15-.39-.34-.76-.69-1.52-1.05-2.34-.24.16-.48.32-.72.49-.3.2-.58.43-.89.61-.55.31-1.03.71-1.61.96-.04.02-.08.02-.12.03-.88.37-1.75.73-2.63,1.1l-1.31.35c-.48.11-.96.23-1.44.33-.32.07-.65.11-.99.16.13.31.25.63.38.95.18.41.36.82.54,1.24.07.16.14.32.21.48.13.3.25.6.38.91l.58,1.32c.38.88.76,1.75,1.13,2.63.39.88.78,1.75,1.17,2.63.18.41.36.83.54,1.24.06.08.12.17.19.25,0-.02,0-.03.01-.05.17-.57.35-1.14.52-1.71.11-.35.21-.7.32-1.06.12-.37.23-.74.35-1.1,0-.06,0-.12,0-.18.15-.45.29-.9.44-1.35,0-.04.01-.09.02-.13.02-.03.03-.05.05-.08.11-.37.22-.74.33-1.11.07-.28.14-.56.23-.89.12.06.21.11.31.16.88.42,1.75.83,2.63,1.25.34.14.69.28,1.02.43.56.27,1.12.55,1.68.82l1.24.59c.1.02.2.05.33.08-.34-.83-.67-1.63-.99-2.42Z"/>
  <path class="cls-1" d="m29.49,43.38c-.44-.07-.88-.13-1.32-.2-.42-.09-.83-.18-1.25-.27-.09-.02-.17-.04-.26-.07-.33-.09-.66-.17-.99-.26-.51-.19-1.01-.38-1.52-.57-.33-.14-.65-.28-.98-.42-.11-.06-.22-.12-.33-.18-.42-.25-.83-.5-1.25-.74-.24-.17-.49-.34-.73-.51-.19-.14-.39-.27-.58-.41-.16-.09-.27-.07-.33.13-.03.1-.09.19-.14.28-.17.42-.3.86-.54,1.24-.14.21-.15.45-.29.66-.15.22-.23.49-.34.74-.2.44-.39.88-.59,1.31-.13.28-.25.56-.38.84-.07.16-.15.31-.22.47-.19.44-.39.88-.58,1.31-.15.33-.31.66-.46.99-.05.11-.1.22-.14.33-.2.44-.39.88-.59,1.32-.15.36-.29.72-.47,1.15.41-.17.77-.32,1.13-.47.44-.21.87-.41,1.31-.62.09-.04.18-.09.26-.13.35-.18.7-.35,1.05-.53.44-.2.87-.4,1.31-.6.13-.06.26-.13.39-.19.31-.15.62-.29.92-.44.04-.02.07-.05.11-.07.73-.37.89-.27.95.58.26.88.52,1.75.77,2.63.14.44.27.88.41,1.31.13.44.25.88.38,1.31.03.09.06.17.08.26.1.35.21.7.31,1.05.09.18.18.15.26,0,.05-.13.1-.26.15-.39.02-.02.03-.05.05-.07l.39-.91s.04-.09.07-.14c.07-.17.14-.34.21-.52.02-.03.04-.05.05-.08.05-.13.1-.26.15-.38.02-.02.03-.05.05-.07,0-.02,0-.04.02-.05.13-.33.25-.67.39-1,.25-.55.51-1.09.76-1.64.03-.09.06-.17.09-.26.02-.02.03-.05.05-.07,0-.02.01-.04.02-.06.01-.04.03-.09.04-.13.11-.26.23-.52.34-.79.13-.26.25-.53.38-.79.03-.09.06-.17.08-.26.02-.02.03-.05.05-.07,0-.02,0-.04.02-.06l.7-1.58c.15-.35.3-.7.45-1.05l.08-.2c.05-.15.09-.3.17-.44.11-.21-.03-.21-.16-.22Z"/>
  <path class="cls-1" d="m36.13,32.68c.17-.11.35-.23.52-.34.02-.02.05-.04.07-.06.27-.22.57-.4.79-.65.61-.69,1.18-1.41,1.76-2.12.22-.46.45-.91.67-1.37,0-.02,0-.04,0-.07.02-.04.03-.09.05-.13.05-.15.1-.31.15-.46.02-.04.04-.09.06-.13,0-.04.01-.09.02-.13.01-.03.03-.05.04-.08,0-.04,0-.08.01-.12.09-.46.17-.92.26-1.38,0-.39,0-.79,0-1.18-.04-.48-.08-.97-.13-1.45-.07-.33-.14-.65-.22-.98-.02-.02-.03-.05-.05-.07,0-.04-.02-.09-.02-.13-.36-.95-.77-1.87-1.38-2.7-.02-.04-.04-.09-.06-.13-.35-.39-.71-.79-1.06-1.18-.09-.07-.17-.13-.26-.2-.21-.16-.43-.31-.64-.47-.09-.07-.18-.13-.27-.2-.24-.15-.48-.3-.72-.46-.09-.04-.17-.09-.26-.13-.29-.15-.58-.3-.87-.45-.39-.13-.78-.26-1.17-.39-.63-.07-1.27-.15-1.9-.22-.68.02-1.36.04-2.04.06l-1.31.33c-.07.03-.13.06-.2.08-.03.02-.05.03-.08.05-.15.05-.3.1-.45.16-.02.02-.04.03-.07.05-.07.03-.13.05-.2.08-.02.02-.05.03-.07.05-.08.02-.17.05-.25.07-.07.05-.13.09-.2.14-.02.02-.05.03-.07.05-.02,0-.04,0-.06.02-.02.02-.05.03-.07.05-.02,0-.04.01-.06.02-.02-.01-.03-.02-.06-.01,0,.02-.01.04-.01.06-.04.03-.08.05-.13.08-.02.02-.04.03-.07.05-.04.03-.09.05-.13.08-.02.02-.05.04-.07.06-.04.02-.09.04-.13.06l-.26.14s-.05.08-.07.12c-.06.04-.13.08-.19.13-.05.05-.11.11-.16.16h-.01c-.07.07-.15.12-.22.18-.09.09-.17.17-.26.26-.3-.04-.33.2-.4.4-.26.29-.51.58-.77.86-.16.24-.31.48-.47.72l-.27.58s-.04,0-.06,0c0,.02,0,.04,0,.06-.03.06-.05.13-.08.19-.02.02-.03.05-.05.07-.01.02-.02.04-.01.06-.06.13-.11.27-.17.4-.03.08-.07.17-.1.25-.05.09-.09.18-.14.27,0,.02.01.04.02.07-.01.02-.02.04-.01.06-.02.02-.03.05-.05.07-.03.13-.06.26-.09.39-.02.04-.03.09-.05.13-.02.11-.04.23-.06.34-.02.09-.05.17-.07.26h-.02c0,.06,0,.13.01.19-.02.07-.04.13-.05.2,0,.11,0,.22,0,.33-.02,0-.04,0-.06,0,0,.15,0,.3,0,.46,0,.04-.01.09-.02.13,0,.15.02.31.02.46v.13c.02.11.03.22.05.33.03.33.05.66.08.98.02.07.03.13.05.2.03.13.05.26.08.39,0,.04-.01.09-.02.13l.08.06.02.13s.03.05.04.07c0,.02,0,.04.01.06.06.2.12.4.18.59.05.11.1.22.14.33,0,.02-.02.04-.02.07.02.02.05.05.07.07.03.06.06.13.08.19.02.03.03.05.05.08,0,.02,0,.04.02.05.02.04.03.09.05.13.11.2.22.39.33.59.04.07.09.13.13.2.1.15.19.3.29.45.08.11.16.22.24.33.13.17.27.35.4.52.09.11.18.22.26.33.17.13.34.27.51.4.09.09.18.18.27.27.06.04.12.08.18.11.05.05.1.1.15.15,0,.02,0,.04,0,.06.04,0,.08,0,.12,0,0,.04,0,.07.01.11.04,0,.08.01.12.02,0,0,0,0,0,0,.22.15.44.3.66.45.06.03.12.06.19.08.02.02.05.03.07.05.02.01.04.02.06.02.02.02.05.03.07.05.02.01.04.02.06.02.02.02.05.03.07.05.02.01.04.02.06.02.02.02.05.03.07.05.06.03.13.06.19.08l.07.04s.04.01.06.02c.02.02.05.03.07.05.2.09.39.17.59.26.04,0,.09,0,.13,0,.04.02.09.05.13.07.04.02.09.04.13.05.04,0,.09,0,.13,0,.11.03.22.06.33.08.04.01.09.03.13.04l.13.02c.07.02.13.04.2.05.02,0,.04,0,.07,0,.04.03.09.06.13.09.04,0,.09-.01.13-.02.07.02.13.04.2.06.15,0,.31,0,.46,0,.13.02.26.04.39.06.04,0,.09.01.13.02.04,0,.09,0,.13,0,.11,0,.22,0,.33,0,.09-.02.18-.05.26-.07.13,0,.26,0,.39.01.07,0,.13,0,.2,0v-.02c.06-.01.13-.03.2-.04.37-.07.74-.13,1.11-.2.37-.12.74-.23,1.12-.35h.03s.03,0,.03,0c0-.02,0-.04,0-.06.46-.22.92-.44,1.37-.66.05-.04.09-.08.14-.13Zm-5.13-4.01c.07-.01.12-.06.13-.13-.01.07-.06.12-.13.13Zm3.61-3.75c-.11.11-.22.22-.32.32-.07.07-.13.13-.2.2l-.39.39s-.09.09-.13.13c-.07.07-.13.13-.2.2-.05.05-.1.1-.16.15-.01,0-.02.01-.03.03-.05.05-.1.11-.15.16-.11.11-.22.22-.32.32-.11.11-.22.22-.33.33-.06.06-.13.13-.19.19-.07.07-.14.13-.2.2-.11.11-.22.22-.32.32-.07.06-.14.11-.21.17-.04.06-.08.11-.13.17-.02,0-.04,0-.05,0-.05.06-.09.13-.14.19-.02,0-.04,0-.06.01l-.21.25h0l-.26.26c-.09.09-.18.17-.26.26l-.39.4s-.09.08-.13.12c-.02,0-.03,0-.04,0-.05-.06-.1-.13-.14-.19h0c-.04-.06-.09-.13-.13-.19l-.13-.07c-.17-.17-.35-.35-.52-.52-.11-.13-.22-.26-.33-.39-.04-.02-.09-.05-.13-.07-.09-.11-.18-.21-.27-.32-.08-.07-.17-.13-.25-.2l-.53-.53s-.05-.08-.07-.12c-.09-.07-.17-.14-.26-.21-.02-.04-.04-.08-.07-.13-.02,0-.04,0-.06,0-.13-.13-.26-.26-.39-.39-.09-.09-.18-.18-.26-.27-.11-.13-.22-.26-.33-.39-.16-.14-.32-.29-.5-.46.58-.58,1.15-1.15,1.73-1.71.05-.05.18,0,.28,0,.16.16.32.32.48.48,0,.02.02.03.03.03.05.05.11.1.16.15.02.02.04.03.05.05h0s.05.09.08.13c.07.05.13.11.2.16,0,.02.01.03.03.03.14.14.28.27.42.41.04.04.09.09.13.13.07.06.13.13.2.19l.13.13c.07.09.13.17.2.26.02,0,.04,0,.06.01.02.02.04.04.06.06.1.1.17.36.34.06.09-.07.17-.14.26-.21.15-.15.31-.31.46-.46.29-.28.57-.57.86-.85.2-.2.39-.39.59-.59.24-.24.48-.48.72-.73.17-.17.35-.35.52-.52.26-.26.53-.53.79-.79.15-.15.3-.31.46-.46.29-.29.57-.57.86-.86.17-.17.35-.35.52-.52.02-.03.05-.05.07-.08.04,0,.09,0,.13.01.2.22.4.43.6.65.19.2.39.39.58.59.15.13.3.27.46.4.02.06.04.13.06.19-1.03,1.03-2.06,2.06-3.08,3.09-.07.07-.14.13-.2.2Z"/>
</svg>