<?xml version="1.0" encoding="UTF-8"?>
<svg id="Calque_1" data-name="Calque 1" xmlns="http://www.w3.org/2000/svg" viewBox="0 0 63.43 64.8">
  <defs>
    <style>
      .cls-1 {
        fill: #8d4a37;
      }
    </style>
  </defs>
  <g>
    <path class="cls-1" d="m43.65,52.03c-.5,0-1,0-1.5,0-7.31,0-14.63,0-21.94,0-1.39,0-2.6-.97-3.04-2.19-.11-.31-.15-.61-.15-.93,0-3.73,0-7.47,0-11.2,0-.12,0-.25,0-.41-.28,0-.53,0-.78,0-.57,0-.87-.31-.91-.88-.05-.67.2-1.3.27-1.95.04-.38.05-.78.14-1.14.1-.36.3-.7.44-1.05.24-.62.43-1.26.72-1.85.55-1.11,1.12-2.21,1.75-3.28.74-1.24,1.62-2.39,2.63-3.42.82-.84,1.66-1.68,2.54-2.45,1-.87,2.03-1.72,3.12-2.5,1.04-.74,2.16-1.38,3.22-2.05-.37-.47-.8-.93-1.13-1.46-.26-.42-.47-.91-.56-1.4-.08-.46.14-.88.59-1.12.15,0,.31,0,.46,0,.54.2,1.08.4,1.62.62.38.15.75.16,1.13,0,.53-.22,1.08-.41,1.62-.62.18,0,.36,0,.54,0,.15.23.31.46.46.69.24.57-.07,1.05-.28,1.54-.09.21-.22.4-.34.6-.08.1-.16.21-.23.31-.28.27-.56.53-.87.83.1.04.18.08.26.11.08.05.15.1.23.15.23.13.46.26.69.38.08.05.15.1.23.15.13.08.26.15.38.23.08.05.15.1.23.16.15.1.31.2.46.31.18.13.36.25.54.38.3.2.6.41.91.61.03.02.06.04.09.06.05.03.1.07.15.1.18.13.36.26.54.38.18.15.35.3.53.45.03.02.06.04.09.06.1.08.2.16.29.24.03.02.06.04.09.06.08.06.15.12.23.18l.23.22c.1.1.2.2.3.31.1.08.21.15.31.23.2.18.41.36.61.54.13.13.26.25.38.38.15.15.3.3.46.46.18.18.36.36.54.54.18.2.36.4.53.61l.07.15c.1.08.2.15.31.23.08.1.16.21.24.31.13.15.25.3.38.46.08.13.16.25.24.38.07.08.15.15.22.23.08.11.16.21.23.32.05.1.1.2.16.3.08.1.15.21.23.31.05.1.1.2.15.3-.01.01-.04.04-.04.04.14.17.29.34.43.5.18.31.35.61.53.92.08.13.16.26.24.39.11.25.22.51.33.76.05.08.09.16.14.23.06.15.11.31.17.46-.03.41.22.7.44.99.21.64.42,1.28.63,1.92.02.08.05.15.07.23.08.38.15.77.23,1.15.03.1.05.2.08.31.04.35.11.71.13,1.06.01.26-.03.52-.05.78-.03.08-.06.15-.1.23-.39.44-.93.27-1.45.32,0,.14,0,.28,0,.42,0,2.98,0,5.95,0,8.93,0,.91.01,1.81-.01,2.72,0,.17-.16.33-.22.5-.23.67-.66,1.19-1.21,1.61-.26.2-.62.27-.94.41-.15.04-.31.09-.46.13Zm-7.35-8.28c-.38-.97-.98-1.76-1.87-2.32-.01-.02-.02-.04-.03-.05,0,.02.02.04.02.05-.1-.07-.2-.16-.31-.22-1.12-.56-2.3-.75-3.54-.48-1.14.25-2.04.86-2.73,1.76-.64.82-1,1.77-.99,2.83,0,1.43,0,2.86,0,4.29,0,.25,0,.5,0,.76h9.82c0-1.23.01-2.44,0-3.65,0-.42-.1-.83-.16-1.25,0-.03-.04-.08-.03-.1.28-.47.04-.9-.11-1.34-.02-.1-.04-.19-.06-.29Zm7.89,6.3c.51-.4.67-.95.67-1.56,0-3.61,0-7.21,0-10.82,0-.11,0-.22,0-.35h-26.16s-.03.06-.03.09c0,3.86-.01,7.72-.01,11.58,0,.61.85,1.42,1.45,1.42,1.58,0,3.17,0,4.75,0,.11,0,.22-.01.36-.02,0-.17,0-.3,0-.44,0-1.75-.03-3.5.04-5.25.02-.62.25-1.25.48-1.84.47-1.17,1.29-2.08,2.32-2.79.7-.49,1.49-.84,2.33-.96.76-.11,1.56-.04,2.33-.02.84.02,1.59.39,2.3.78.97.53,1.76,1.27,2.29,2.23.35.62.66,1.29.79,1.98.17.91.17,1.86.19,2.79.03,1.17,0,2.35,0,3.55.14,0,.25,0,.36,0,1.44,0,2.89.02,4.33-.01.37,0,.73-.18,1.1-.27.03-.02.06-.04.09-.06Zm-6.99-28.71c-.6-.44-1.19-.9-1.81-1.32-1.11-.73-2.18-1.52-3.38-2.1-.22-.1-.38-.11-.58.01-.43.27-.88.49-1.3.78-1.33.9-2.65,1.81-3.97,2.72-.03.02-.06.04-.09.06-.4.37-.81.72-1.2,1.1-.79.75-1.6,1.48-2.34,2.28-.63.68-1.2,1.43-1.73,2.19-.58.81-1.11,1.66-1.62,2.52-.38.65-.68,1.36-1.01,2.04-.05.02-.09.04-.14.06.02.03.04.07.06.1-.18.92-.7,1.74-.71,2.71,0,.39-.18.77-.28,1.16h29.33c-.09-.18-.22-.34-.22-.48.05-.99-.36-1.88-.64-2.77-.25-.8-.55-1.61-1-2.33-.62-1-1.2-2.03-1.86-3.01-.73-1.09-1.56-2.11-2.51-3.02-.07-.46-.24-.63-.7-.7-.12-.11-.25-.21-.36-.33-.21-.24-.36-.52-.6-.72-.39-.32-.83-.59-1.26-.88-.03-.02-.06-.04-.09-.06Zm-4.71-6.2s-.04-.09-.07-.14c-.48.38-.98.13-1.49.12.26.23.52.46.79.7.26-.23.51-.45.76-.68Z"/>
    <path class="cls-1" d="m20.21,52.53c-1.52,0-2.96-1.04-3.5-2.52-.12-.34-.18-.69-.18-1.1,0-2.9,0-5.81,0-8.71v-2.4h-.29c-.81,0-1.34-.5-1.4-1.33-.04-.49.06-.93.15-1.35.05-.23.1-.46.12-.69l.02-.28c.02-.31.05-.62.13-.94.07-.27.19-.51.3-.75.06-.12.11-.24.16-.36.08-.21.16-.42.24-.64.15-.41.3-.84.5-1.25.46-.93,1.08-2.15,1.77-3.31.77-1.29,1.68-2.47,2.7-3.52.89-.9,1.7-1.71,2.57-2.48,1.16-1.02,2.17-1.82,3.15-2.52.74-.53,1.52-1,2.27-1.46.17-.1.34-.21.5-.31-.28-.34-.57-.68-.81-1.08-.31-.51-.53-1.05-.62-1.57-.13-.68.2-1.31.85-1.65l.11-.06.76.03.48.18c.39.14.77.29,1.15.44.27.11.5.11.76,0,.38-.16.77-.3,1.17-.45l.65-.21h.8l.65,1c.28.68.02,1.25-.19,1.71l-.09.21c-.07.17-.16.32-.26.48l-.43.6-.37.36,1.47.88,2.85,1.98,2.57,2.2,1.4,1.4.65.79.31.25,1.97,2.85c.08.1.16.19.24.28l.05.08.76,1.3.71,1.64v.11c-.02.17.08.32.27.56l.15.24.7,2.15.37,1.85c.04.26.08.53.09.79.01.22,0,.42-.03.62,0,.08-.02.15-.02.23l-.04.15-.18.37c-.41.45-.92.46-1.32.48v9.53c0,.69,0,1.37-.01,2.06,0,.23-.11.41-.18.54-.02.04-.05.07-.06.11-.25.72-.71,1.34-1.38,1.84-.24.19-.53.28-.77.37-.09.03-.19.06-.28.1l-.65.17h-.41c-.36,0-.73,0-1.09,0h-6.4c-5.18,0-10.36,0-15.54,0h0Zm-3.18-15.72h.49v3.39c0,2.9,0,5.81,0,8.71,0,.3.04.53.12.76.4,1.1,1.45,1.87,2.57,1.87h0c5.18,0,10.36,0,15.54,0h6.4c.36,0,.72,0,1.08,0h.34s.4-.11.4-.11c.05-.03.17-.06.28-.1.2-.07.38-.13.5-.22.51-.38.86-.85,1.04-1.38.03-.1.08-.19.14-.29.02-.04.04-.07.06-.11.01-.64,0-1.31,0-1.99v-10.47s.45-.04.45-.04c.15-.01.31-.01.46-.01.34,0,.5,0,.62-.1l.03-.06c0-.06.01-.12.02-.17.02-.15.03-.31.03-.46-.01-.24-.05-.47-.08-.7l-.18-.92-.22-1-.62-1.87c-.21-.28-.48-.63-.48-1.12l-.64-1.41-.67-1.14c-.13-.16-.27-.31-.4-.47l-.29-.35.1-.1-.56-.84-.24-.26-.39-.56-.4-.5-.35-.26-.1-.2-1.46-1.53-.98-.9-.34-.25-.81-.74-.91-.76-2.87-1.96-1.71-.98-.7-.29,1.59-1.6.08-.15c.07-.11.14-.23.19-.35l.1-.23c.18-.39.28-.63.19-.88l-.28-.42h-.18l-.4.15c-.38.14-.75.28-1.13.43-.5.21-.99.21-1.51,0-.37-.15-.75-.29-1.12-.43l-.4-.15h-.23c-.14.1-.29.27-.24.54.07.4.25.83.49,1.23.21.34.47.65.74.98.12.14.24.29.35.43l.34.43-.46.29c-.33.21-.66.41-.99.61-.74.45-1.5.92-2.21,1.42-.96.69-1.94,1.47-3.08,2.47-.85.74-1.64,1.53-2.51,2.42-.97.99-1.83,2.11-2.56,3.33-.68,1.14-1.28,2.33-1.74,3.25-.18.36-.31.74-.46,1.14-.08.22-.16.45-.25.67-.06.14-.12.28-.19.42-.1.2-.19.39-.23.58-.06.23-.08.49-.1.77l-.03.3c-.03.27-.08.53-.14.8-.08.37-.15.73-.13,1.07.03.36.15.42.42.42h.51s.28,0,.28,0Zm23.96,14.09c-.39,0-.77,0-1.16,0h-2.02s0-1.58,0-1.58c0-.83,0-1.64-.01-2.45v-.34c-.02-.79-.04-1.61-.18-2.37-.13-.69-.48-1.37-.74-1.83-.48-.86-1.18-1.54-2.09-2.04-.68-.37-1.35-.7-2.08-.72-.18,0-.36-.01-.55-.02-.6-.02-1.16-.04-1.71.03-.72.1-1.43.4-2.11.87-1.04.72-1.74,1.56-2.14,2.57-.22.55-.42,1.13-.45,1.68-.05,1.25-.05,2.52-.04,3.76,0,.49,0,.99,0,1.48v.9s-.58.04-.58.04c-.1,0-.18.01-.27.01-1.58,0-3.17,0-4.75,0h0c-.41,0-.89-.23-1.29-.62-.41-.4-.65-.87-.65-1.29,0-3.12,0-6.25,0-9.37v-2.31s.19-.43.19-.43l.34-.04h26.66v11.66c0,.86-.28,1.5-.86,1.95l-.18.13-.09.02c-.11.03-.21.06-.32.1-.27.09-.57.18-.9.19-.68.01-1.35.02-2.03.02Zm-2.19-.99h1.03c1.05,0,2.11,0,3.16-.01.18,0,.39-.07.61-.14.09-.03.19-.06.28-.09h0c.33-.26.47-.62.47-1.17v-10.67s-25.21,0-25.21,0v1.8c0,3.12-.01,6.25-.01,9.37,0,.12.12.36.35.58.23.22.48.34.61.34h0c1.54,0,3.08,0,4.62,0,0-.48,0-.96,0-1.45,0-1.24,0-2.53.04-3.8.03-.7.26-1.38.51-2,.47-1.18,1.31-2.19,2.5-3.01.81-.57,1.67-.92,2.54-1.04.63-.09,1.27-.07,1.88-.04.18,0,.35.01.53.02.95.02,1.77.42,2.53.83,1.08.59,1.92,1.4,2.48,2.42.29.52.69,1.3.85,2.13.16.84.17,1.7.19,2.53v.34c.03.82.02,1.65.02,2.48v.59Zm-19.64-12.5h0s0,0,0,0Zm18.01,13.46h-10.81v-2.57c0-.99,0-1.99,0-2.98,0-1.13.37-2.18,1.1-3.13.79-1.03,1.81-1.68,3.02-1.94,1.31-.28,2.61-.11,3.86.52.1.05.2.12.3.2l.06.04h0c.93.57,1.62,1.43,2.07,2.56l.02.08.06.29s.03.08.06.14c.13.36.31.83.1,1.36.02.12.03.23.05.34.05.3.1.62.11.94.02.87.01,1.74,0,2.62v1.54Zm-9.82-.99h8.84v-.55c0-.87,0-1.74,0-2.6,0-.26-.05-.52-.09-.8-.02-.11-.04-.22-.05-.34-.08-.21-.03-.38.03-.48.11-.18.06-.33-.08-.7-.03-.07-.06-.15-.08-.22l-.07-.3c-.31-.76-.73-1.34-1.29-1.79l-.52-.36s-.08-.07-.13-.09c-1.07-.53-2.12-.67-3.21-.44-.99.21-1.79.73-2.45,1.58-.59.77-.89,1.62-.89,2.52,0,.99,0,1.99,0,2.98v1.58Zm19.87-13.74h-30.74l.16-.62c.03-.13.08-.27.12-.4.08-.24.15-.46.15-.65,0-.67.22-1.25.42-1.81.1-.28.19-.54.26-.8l-.28-.43.52-.21c.07-.15.15-.31.22-.46.22-.48.45-.97.73-1.44.53-.91,1.08-1.77,1.64-2.56.65-.92,1.21-1.63,1.77-2.24.56-.61,1.17-1.19,1.77-1.74l.59-.56c.27-.26.55-.51.83-.76l.52-.45,1.17-.8c.93-.64,1.87-1.29,2.81-1.92.25-.17.51-.32.77-.47.18-.1.36-.21.54-.32.44-.28.81-.16,1.05-.04.99.47,1.89,1.08,2.76,1.67.23.15.45.31.68.46.43.29.85.6,1.27.91.18.14.37.28.56.41l.08.06c.13.09.25.17.38.25.3.2.62.41.91.65.2.16.34.36.47.53.06.08.12.17.19.24.06.07.13.13.2.19h.01c.52.13.81.41.93.92.89.86,1.72,1.87,2.47,2.99.43.64.83,1.31,1.22,1.96.21.36.43.71.65,1.06.5.81.81,1.69,1.06,2.45.06.18.12.35.18.53.26.74.52,1.5.49,2.36.01.03.03.06.05.09.04.07.08.14.12.21l.33.7Zm-.5-.95h0s0,0,0,0Zm-28.94-.03h27.96s0,0,0-.01c.03-.69-.19-1.35-.43-2.04-.06-.18-.13-.37-.19-.55-.22-.7-.51-1.51-.95-2.22-.22-.36-.44-.72-.65-1.08-.38-.64-.78-1.3-1.2-1.92-.74-1.11-1.57-2.09-2.45-2.93l-.12-.12-.02-.17q-.04-.24-.29-.28l-.15-.02-.22-.2c-.1-.09-.2-.18-.29-.28-.08-.1-.16-.2-.24-.3-.1-.14-.2-.27-.31-.36-.26-.21-.54-.4-.83-.59-.13-.09-.26-.17-.39-.26l-.1-.07c-.19-.14-.38-.28-.57-.42-.4-.3-.8-.6-1.22-.88-.23-.15-.46-.31-.69-.46-.84-.57-1.71-1.16-2.63-1.6-.06-.03-.08-.03-.08-.03-.21.14-.4.25-.6.36-.24.14-.48.27-.71.43-.94.63-1.87,1.27-2.8,1.91l-1.25.86-.33.31c-.27.25-.54.49-.81.74l-.6.56c-.58.54-1.18,1.1-1.72,1.69-.53.57-1.07,1.25-1.69,2.14-.54.77-1.08,1.61-1.59,2.49-.25.43-.46.88-.69,1.36-.1.22-.2.43-.31.65l-.05.1c-.08.38-.21.73-.33,1.07-.18.51-.35.98-.36,1.48,0,.24-.05.45-.11.67Zm28.94-.04h0Zm-14.98-18.64l-2.13-1.87,1.34.02c.17,0,.33.03.5.05.36.06.52.07.68-.06l.48-.38.5,1.03-1.37,1.21Z"/>
  </g>
  <g>
    <path class="cls-1" d="m40.2,24.04c-.23-.23-.47-.47-.7-.7.46.07.63.24.7.7Z"/>
    <path class="cls-1" d="m40.9,25.44l-2.82-2.81,1.49.23c.68.1,1.01.44,1.11,1.11l.22,1.47Z"/>
  </g>
  <g>
    <path class="cls-1" d="m36.37,44.04c-.02-.1-.04-.19-.06-.29.02.1.04.19.06.29Z"/>
    <polygon class="cls-1" points="35.88 44.15 35.82 43.86 36.78 43.64 36.85 43.94 35.88 44.15"/>
  </g>
  <g>
    <path class="cls-1" d="m34.43,41.43s0,0,0,0c0-.02-.02-.03-.02-.05.01.02.02.04.03.05Z"/>
    <polygon class="cls-1" points="34.39 42.72 33.96 41.61 34.35 41.4 33.97 41.23 34.14 40.85 34.55 40.95 34.45 41.34 34.83 41.13 35.41 42.14 34.71 42 34.39 42.72"/>
  </g>
  <g>
    <path class="cls-1" d="m44.1,50.12s.06-.04.09-.06c-.03.02-.06.04-.09.06Z"/>
    <polygon class="cls-1" points="44.39 50.52 43.82 49.72 43.9 49.66 44.48 50.46 44.39 50.52"/>
  </g>
  <g>
    <path class="cls-1" d="m37.29,21.41s-.06-.04-.09-.06c.03.02.06.04.09.06Z"/>
    <polygon class="cls-1" points="37.01 21.82 36.91 21.75 37.48 20.95 37.56 21 37.01 21.82"/>
  </g>
</svg>