<?xml version="1.0" encoding="UTF-8"?>
<svg id="Calque_1" data-name="Calque 1" xmlns="http://www.w3.org/2000/svg" viewBox="0 0 63.43 64.8">
  <defs>
    <style>
      .cls-1 {
        fill: #8d4a37;
      }
    </style>
  </defs>
  <g>
    <path class="cls-1" d="m43.45,31.65c-.04-1.37-.21-2.76-.68-4.06-.43-1.19-1.13-2.3-2.01-3.21-1.75-1.83-4.18-2.9-6.67-3.23-4.64-.62-9.51,1.52-12.17,5.38-2.54,3.69-3.16,9.03-.18,12.67,2.9,3.54,7.89,4.87,12.3,4.29,2.65-.35,5.2-1.59,6.89-3.7,1.79-2.25,2.6-5.13,2.52-8.13Zm-3.97,4.02c-.68,1.64-1.97,3.05-3.52,3.89-1.75.95-3.75.93-5.68.72-3.09-.34-6.27-2.31-7.01-5.5-.75-3.24.84-6.97,3.54-8.85,2.68-1.87,6.54-2.25,9.54-.98,3.98,1.69,4.62,7.13,3.13,10.71Z"/>
    <path class="cls-1" d="m26.43,19.92c-.17-.88-.53-1.85-1.17-2.5-.79-.8-2.05-.52-1.93.75.06.61.48,1.3.76,1.83.25.47.5,1.02.92,1.36.36.29.94.46,1.3.07.37-.39.21-1.04.12-1.51Z"/>
    <path class="cls-1" d="m31.17,18.81c.01-.9-.14-1.92-.64-2.69-.62-.94-1.9-.93-2.04.34-.07.61.21,1.37.37,1.94.15.51.28,1.1.62,1.52.3.36.82.64,1.26.34.44-.31.42-.97.42-1.45Z"/>
    <path class="cls-1" d="m35.62,19.12c.35-.83.6-1.83.43-2.73-.21-1.1-1.41-1.58-2.02-.46-.29.54-.33,1.35-.39,1.94-.06.53-.16,1.12,0,1.64.14.44.52.91,1.04.79.53-.12.76-.74.94-1.18Z"/>
    <path class="cls-1" d="m39.72,20.52c.59-.68,1.13-1.56,1.24-2.47.13-1.12-.86-1.93-1.78-1.05-.44.42-.72,1.18-.96,1.73-.22.49-.49,1.02-.5,1.56,0,.46.22,1.02.75,1.07.54.05.95-.48,1.26-.84Z"/>
    <path class="cls-1" d="m26.43,45.34c-.17.88-.53,1.85-1.17,2.5-.79.8-2.05.52-1.93-.75.06-.61.48-1.3.76-1.83.25-.47.5-1.02.92-1.36.36-.29.94-.46,1.3-.07.37.39.21,1.04.12,1.51Z"/>
    <path class="cls-1" d="m22.53,43.65c-.35.83-.89,1.71-1.66,2.21-.94.62-2.11.1-1.74-1.12.18-.58.73-1.17,1.12-1.63.34-.41.69-.9,1.18-1.14.41-.21,1.01-.26,1.29.19.28.46,0,1.06-.19,1.5Z"/>
    <path class="cls-1" d="m31.17,46.14c.01.9-.14,1.92-.64,2.69-.62.94-1.9.93-2.04-.34-.07-.61.21-1.37.37-1.94.15-.51.28-1.1.62-1.52.3-.36.82-.64,1.26-.34.44.31.42.97.42,1.45Z"/>
    <path class="cls-1" d="m35.62,45.68c.35.83.6,1.83.43,2.73-.21,1.1-1.41,1.58-2.02.46-.29-.54-.33-1.35-.39-1.94-.06-.53-.16-1.12,0-1.64.14-.44.52-.91,1.04-.79.53.12.76.74.94,1.18Z"/>
    <path class="cls-1" d="m39.72,44.28c.59.68,1.13,1.56,1.24,2.47.13,1.12-.86,1.93-1.78,1.05-.44-.42-.72-1.18-.96-1.73-.22-.49-.49-1.02-.5-1.56,0-.46.22-1.02.75-1.07.54-.05.95.48,1.26.84Z"/>
    <path class="cls-1" d="m18.4,27.73c-.88-.17-1.85-.53-2.5-1.17-.8-.79-.52-2.05.75-1.93.61.06,1.3.48,1.83.76.47.25,1.02.5,1.36.92.29.36.46.94.07,1.3-.39.37-1.04.21-1.51.12Z"/>
    <path class="cls-1" d="m21.03,23.81c-.82-.36-1.7-.91-2.19-1.68-.61-.95-.07-2.11,1.15-1.72.58.19,1.17.75,1.62,1.14.41.34.89.7,1.13,1.19.2.42.25,1.01-.21,1.29-.46.28-1.06-.02-1.5-.21Z"/>
    <path class="cls-1" d="m17.3,32.46c-.9.01-1.92-.14-2.69-.64-.94-.62-.93-1.9.34-2.04.61-.07,1.37.21,1.94.37.51.15,1.1.28,1.52.62.36.3.64.82.34,1.26-.31.44-.97.42-1.45.42Z"/>
    <path class="cls-1" d="m17.76,36.91c-.83.35-1.83.6-2.73.43-1.1-.21-1.58-1.41-.46-2.02.54-.29,1.35-.33,1.94-.39.53-.06,1.12-.16,1.64,0,.44.14.91.52.79,1.04-.12.53-.74.76-1.18.94Z"/>
    <path class="cls-1" d="m19.15,41.02c-.68.59-1.56,1.13-2.47,1.24-1.12.13-1.93-.86-1.05-1.78.42-.44,1.18-.72,1.73-.96.49-.22,1.02-.49,1.56-.5.46,0,1.02.22,1.07.75.05.54-.48.95-.84,1.26Z"/>
    <path class="cls-1" d="m41.53,42.88c.35.83.89,1.71,1.66,2.21.94.62,2.11.1,1.74-1.12-.18-.58-.73-1.17-1.12-1.63-.34-.41-.69-.9-1.18-1.14-.41-.21-1.01-.26-1.29.19-.28.46,0,1.06.19,1.5Z"/>
    <path class="cls-1" d="m45.5,27.42c.88-.17,1.85-.53,2.5-1.17.8-.79.52-2.05-.75-1.93-.61.06-1.3.48-1.83.76-.47.25-1.02.5-1.36.92-.29.36-.46.94-.07,1.3.39.37,1.04.21,1.51.12Z"/>
    <path class="cls-1" d="m43.17,23.52c.79-.43,1.61-1.06,2.03-1.88.52-1-.12-2.11-1.3-1.61-.56.24-1.09.85-1.51,1.28-.37.38-.82.78-1.02,1.29-.17.43-.16,1.03.32,1.26.49.23,1.05-.11,1.47-.34Z"/>
    <path class="cls-1" d="m46.14,32.16c.9.01,1.92-.14,2.69-.64.94-.62.93-1.9-.34-2.04-.61-.07-1.37.21-1.94.37-.51.15-1.1.28-1.52.62-.36.3-.64.82-.34,1.26.31.44.97.42,1.45.42Z"/>
    <path class="cls-1" d="m45.52,36.6c.83.35,1.83.6,2.73.43,1.1-.21,1.58-1.41.46-2.02-.54-.29-1.35-.33-1.94-.39-.53-.06-1.12-.16-1.64,0-.44.14-.91.52-.79,1.04.12.53.74.76,1.18.94Z"/>
    <path class="cls-1" d="m44.13,40.25c.68.59,1.56,1.13,2.47,1.24,1.12.13,1.93-.86,1.05-1.78-.42-.44-1.18-.72-1.73-.96-.49-.22-1.02-.49-1.56-.5-.46,0-1.02.22-1.07.75-.05.54.48.95.84,1.26Z"/>
  </g>
  <g>
    <path class="cls-1" d="m29.46,37.12c-.15,0-.29-.04-.42-.11-.3-.17-.46-.53-.46-.99v-6.36c0-.47.16-.82.46-.99.3-.17.69-.14,1.09.09l5.51,3.18c.4.23.63.55.63.9s-.22.66-.63.9c-.06.03-.13.01-.16-.04-.03-.06-.01-.13.04-.16.33-.19.51-.43.51-.69s-.18-.5-.51-.69l-5.51-3.18c-.33-.19-.63-.22-.85-.09-.22.13-.35.41-.35.79v6.36c0,.38.12.66.35.79.22.13.52.1.85-.09l4.79-2.76c.06-.03.13-.01.16.04.03.06.01.13-.04.16l-4.79,2.76c-.23.14-.46.2-.67.2Z"/>
    <path class="cls-1" d="m29.46,37.89c-.29,0-.56-.07-.8-.21-.54-.31-.85-.92-.85-1.66v-6.36c0-.74.31-1.35.85-1.66.54-.31,1.22-.28,1.86.09l5.51,3.18c.64.37,1.01.94,1.01,1.56s-.37,1.19-1.01,1.56c-.13.07-.27.11-.41.12-.08.12-.18.23-.32.3l-4.79,2.76c-.35.2-.71.31-1.06.31Zm.12-8.29s0,.03,0,.05v6.36s0,.04,0,.05c.01,0,.03-.02.05-.02l4.79-2.76c.13-.07.27-.11.41-.12.08-.12.18-.23.31-.3.02,0,.03-.02.04-.03-.01,0-.03-.02-.04-.03l-5.51-3.18s-.03-.02-.05-.02Zm5.61,5.01h0s0,0,0,0Zm.72-.42s0,0,0,0c0,0,0,0,0,0Zm-1.37-.71s0,0,0,0h0Z"/>
  </g>
</svg>