<?xml version="1.0" encoding="UTF-8"?>
<svg id="Calque_1" data-name="Calque 1" xmlns="http://www.w3.org/2000/svg" viewBox="0 0 63.43 64.8">
  <defs>
    <style>
      .cls-1 {
        fill: #8d4a37;
      }
    </style>
  </defs>
  <path class="cls-1" d="m31.76,56.44c-.11,0-.23-.04-.31-.13l-4.46-4.46c-.17-.17-.17-.45,0-.62.17-.17.45-.17.62,0l4.14,4.14,4.14-4.14c.17-.17.45-.17.62,0,.17.17.17.45,0,.62l-4.46,4.46c-.09.09-.2.13-.31.13Z"/>
  <g>
    <path class="cls-1" d="m34.85,33.65c0,1.76.18,4.32-1.69,5.26-1.73.87-3.32-.31-3.89-1.95-.72-2.04-.67-4.46-.78-6.6-.13-2.42-.21-4.84-.36-7.26-.15-2.41-.28-4.83-.11-7.24.13-1.89.21-4.78,1.71-6.16,1.47-1.34,3.51-.53,4.44,1.03.94,1.59.73,3.62.69,5.39-.11,5.84,0,11.69-.01,17.53Z"/>
    <path class="cls-1" d="m47.82,36.68c-.47,1.83-2.67,3.59-4.44,2.2-1.42-1.12-1.37-3.3-1.53-4.92-.54-5.52-.89-11.05-1.35-16.58-.18-2.19-.42-4.74.8-6.7,1.08-1.73,3.1-2.29,4.78-1.02,2.67,2.02,2.48,6.31,2.5,9.29.02,2.84,0,5.68-.04,8.53-.04,3.07.07,6.2-.71,9.2Z"/>
    <path class="cls-1" d="m22.19,24.98c-.03,2.28.33,16.09-4.3,14.06-2.15-.94-1.98-3.93-2.07-5.87-.17-3.58-.5-7.14-.63-10.72-.11-3.19-.27-6.49.26-9.65.29-1.72.97-4.06,2.98-4.4,2.86-.49,3.49,2.61,3.63,4.76.25,3.93.19,7.88.14,11.81Z"/>
    <path class="cls-1" d="m10.35,21.6c-1.48-1.22-4.06-1-5.01.77-.87,1.63-.17,3.89,1.59,4.57,2.88,1.11,5.98-3.24,3.42-5.34Z"/>
    <path class="cls-1" d="m58.38,24.05c-.85-3.75-7.35-2.08-5.92,1.61,1.22,3.13,6.7,1.86,5.92-1.61Z"/>
  </g>
</svg>