<?xml version="1.0" encoding="UTF-8"?>
<svg id="Calque_1" data-name="Calque 1" xmlns="http://www.w3.org/2000/svg" viewBox="0 0 63.43 64.8">
  <defs>
    <style>
      .cls-1 {
        fill: #d44e1d;
      }
    </style>
  </defs>
  <g>
    <path class="cls-1" d="m33.15,32.86s-.06,0-.09,0c-.18.01-.29,0-.36-.19-.03-.09-.07-.17-.1-.26-.01-.03-.03-.07-.04-.1-.08-.12-.16-.24-.23-.36-.3-.54-.69-1.02-1.07-1.5-.18-.22-.4-.4-.58-.61-.15-.19-.37-.3-.53-.48-.01-.02-.02-.04-.03-.06-.23-.19-.45-.38-.68-.56-.29-.21-.58-.41-.9-.58-.27-.15-.52-.32-.78-.47-.1-.06-.21-.08-.31-.13-.19-.09-.31-.24-.42-.41-.13-.2-.29-.37-.45-.54-.16-.18-.31-.36-.49-.52-.22-.2-.46-.38-.68-.58-.08-.07-.12-.18-.21-.23-.32-.2-.6-.47-.92-.68-.11-.07-.24-.11-.36-.18-.16-.09-.31-.21-.48-.3-.23-.13-.45-.28-.69-.35-.25-.07-.45-.23-.71-.28-.32-.07-.64-.18-.96-.25-.17-.04-.27-.3-.16-.46.02-.03.05-.06.08-.1,2.04-2.5,4.09-4.99,6.13-7.49.14-.17.28-.24.54-.04.24.18.47.38.71.57.01,0,.02,0,.04,0,.06-.07.11-.13.17-.2.15-.18.29-.21.5-.09.41.24.83.47,1.23.73.33.22.63.49.95.73.09.07.19.14.27.22.05.04.06.11.1.16.22.27.45.53.65.82.4.58.68,1.22.77,1.93.01.09.04.18.05.27.02.12.1.06.16.05.65-.04,1.28.06,1.89.26.26.09.52.2.76.32.63.31,1.19.71,1.7,1.19.37.34.75.68,1.01,1.13.04.07.12.12.17.19.1.15.09.26-.03.4-.06.08-.12.15-.18.23,0,.01,0,.02,0,.04.23.19.46.39.7.58.15.12.23.27.17.46l-6.33,7.73Zm-.66-2.81c-.11-.06-.22-.11-.31-.19-.16-.14-.29-.3-.44-.43-.42-.36-.85-.72-1.34-.98-.31-.16-.61-.32-.92-.48-.03-.02-.06-.04-.09-.06,0,0-.01.01-.02.02l.09.08c.33.25.65.51.98.76.01.02.02.04.03.06l.72.59c.03.06.05.11.08.15.21.24.43.48.64.72.03.04.07.08.1.12.1.14.2.28.3.41.01.02.02.04.03.06.24.36.48.72.73,1.1,1.9-2.31,3.79-4.63,5.69-6.94l-.55-.45-.11.14c-1.53,1.86-3.05,3.72-4.58,5.58-.07.09-.15.2-.24.25-.09.05-.22.06-.31.02-.22-.09-.31-.33-.47-.49,0-.01,0-.02,0-.03Zm-7.91-6.02l.12.1c.63.4,1.17.9,1.73,1.39,0-.05-.04-.08-.06-.11-.36-.55-.82-1.02-1.31-1.45-.31-.27-.65-.5-.97-.76-.05-.03-.09-.05-.14-.08-.03-.02-.07-.05-.1-.07-.05-.03-.11-.07-.16-.1-.14-.09-.28-.18-.42-.26-.13-.08-.23-.25-.18-.4.03-.09.1-.16.16-.24,1.55-1.9,3.1-3.79,4.66-5.68.04-.04.07-.09.11-.13l-.57-.46-.11.14c-1.8,2.2-3.61,4.4-5.41,6.6-.03.04-.08.08-.12.11-.07.06-.06.1.03.13.15.05.3.1.45.15.57.21,1.12.45,1.64.76.21.13.43.24.64.36Zm-.7-1.77s0,.02,0,.04c.01.01.03.03.04.04.33.23.66.45.98.69.18.13.33.3.5.45.37.3.7.63,1.01.99.41.47.76.97,1.02,1.54.08.18.15.36.23.55.05-.06.08-.1.11-.14,1.52-1.86,3.04-3.72,4.57-5.57.14-.17.17-.32.13-.52-.02-.11-.04-.23-.06-.34l-.03-.06c-.05-.17-.09-.35-.14-.52-.01-.02-.02-.04-.03-.06-.1-.22-.19-.44-.3-.64-.32-.56-.73-1.04-1.22-1.45-.01-.02-.02-.04-.03-.06-.53-.43-1.09-.82-1.7-1.15l-.09.1c-1.65,2.01-3.29,4.02-4.94,6.03-.02.03-.04.06-.06.09Zm9.07-1.17s-.05.05-.07.08c-1.55,1.89-3.1,3.79-4.65,5.68l-.07.08c.61.07,1.15.27,1.68.51.34.15.65.35.97.54.13.08.25.18.37.26.14.1.3.17.43.28.27.22.52.44.78.67.14.13.27.28.41.41.09.09.19.16.29.24.03-.03.04-.04.05-.05,1.66-2.02,3.31-4.04,4.97-6.06.01-.02.03-.03.04-.05,0-.04.02-.1,0-.12-.26-.28-.49-.6-.78-.85-.1-.08-.16-.21-.26-.28-.26-.19-.55-.36-.81-.56-.34-.26-.73-.42-1.11-.58-.23-.09-.48-.14-.72-.22-.08-.02-.15-.07-.23-.08-.09-.01-.17,0-.26.01-.26,0-.51,0-.77,0-.09,0-.19-.01-.23.1Z"/>
    <path class="cls-1" d="m30.12,29.29s.02.04.03.06c-.01-.02-.02-.04-.03-.06Z"/>
    <path class="cls-1" d="m30.71,17.24s-.02-.04-.03-.06c.01.02.02.04.03.06Z"/>
    <path class="cls-1" d="m32.26,19.4s-.02-.04-.03-.06c.01.02.02.04.03.06Z"/>
    <path class="cls-1" d="m32.43,19.97s-.02-.04-.03-.06c0,.02.02.04.03.06Z"/>
  </g>
  <g>
    <path class="cls-1" d="m18.8,23.53c1.48.03,2.11,1.51,2.28,2.78.11.83.13,1.65.44,2.44.34.87.87,1.68,1.44,2.41,1.01,1.3,2.35,2.66,3.81,3.46,1.42.77,3.09.86,4.67.77,1.76-.1,3.49-.54,4.89-1.65,1.28-1.02,2.22-2.44,2.94-3.89.76-1.53,1.2-3.17,1.89-4.72.56-1.28,1.52-2.51,3.03-2.57,1.52-.06,2.5,1.15,2.42,2.61-.09,1.51-.82,3.08-1.32,4.49-1.12,3.16-2.74,6.26-5.33,8.46-4.58,3.89-11.28,4.22-16.48,1.39-2.87-1.56-5.05-4.07-6.03-7.2-.61-1.95-2.47-8.87,1.35-8.79Z"/>
    <path class="cls-1" d="m48.82,29.51c1.01.5,2.08.84,3.15,1.2.76.25,1.76.69,2.54.29,1.2-.62.69-2.22-.15-2.88-1.29-1.01-3.26-1.77-4.91-1.5-.65.11-1.51.41-1.75,1.09-.28.79.49,1.49,1.13,1.8Z"/>
    <path class="cls-1" d="m46.45,33.16c-.41,1.53,1.47,2.83,2.56,3.5.71.43,1.53.89,2.38.91.88.02,1.8-.55,1.6-1.53-.32-1.52-2.33-2.65-3.63-3.22-.78-.34-2.79-1.11-2.91.34Z"/>
    <path class="cls-1" d="m42.68,39.55c.58,1.39,1.6,2.66,2.91,3.42.64.37,1.49.72,2.21.35.57-.3.92-1.03.75-1.65-.19-.69-.89-1.17-1.4-1.62-.66-.58-1.33-1.12-2.05-1.62-.55-.38-1.32-.96-2.01-.6-.62.32-.66,1.14-.42,1.73Z"/>
    <path class="cls-1" d="m38.09,42.77c.01,1.45.43,3.07,1.41,4.18.83.94,2.4,1.28,2.86-.2.46-1.49-.67-3.12-1.52-4.25-.4-.53-.92-1.17-1.65-1.18-.77,0-1.24.73-1.1,1.45Z"/>
    <path class="cls-1" d="m32.96,49.24c.57.6,1.38.5,2.01.05.62-.44.63-1.01.6-1.71-.07-1.36-.17-3.25-1.25-4.25-.49-.45-1.2-.51-1.65.04-.39.47-.37,1.16-.41,1.74-.09,1.35-.32,3.04.7,4.12Z"/>
    <path class="cls-1" d="m27.22,49.61c1.26-.43,1.54-2.58,1.72-3.7.16-.98.39-2.89-1-3.06-1.63-.2-2.16,1.88-2.42,3.07-.17.79-.47,1.69-.33,2.51.15.93,1.08,1.71,2.02,1.18Z"/>
    <path class="cls-1" d="m18.43,47.55c2,1.08,3.68-2.51,4.29-3.84.3-.67.62-1.56.2-2.25-.55-.91-1.67-.74-2.41-.2-1.35.99-4.54,4.96-2.08,6.28Z"/>
    <path class="cls-1" d="m11.25,41.94c1.05,1.74,2.68.23,3.7-.69.88-.79,3.2-2.78,2.08-4.15-1.06-1.3-3.26.27-4.12,1.05-.93.83-2.47,2.45-1.66,3.79Z"/>
    <path class="cls-1" d="m8.27,33.85c.53,1.97,2.89,1.06,4.13.45,1.12-.54,3.7-2.12,2.7-3.75-.67-1.09-2.84-.32-3.74,0-1.37.47-3.58,1.49-3.09,3.3Z"/>
  </g>
</svg>