<?xml version="1.0" encoding="UTF-8"?>
<svg id="Calque_1" data-name="Calque 1" xmlns="http://www.w3.org/2000/svg" viewBox="0 0 63.43 64.8">
  <defs>
    <style>
      .cls-1 {
        fill: #8d4a37;
      }
    </style>
  </defs>
  <g>
    <path class="cls-1" d="m48.36,27.3c0,1.07-.15,2.36-.87,3.21-.42.5-.98.61-1.59.73-.79.17-1.53.11-2.13-.5-1.18-1.21-1.14-3.26-1.05-4.82.09-1.49.57-3.7-1.28-4.28-.8-.25-1.69-.22-2.52-.19-.94.02-1.88.05-2.82.09-1.91.08-3.83.16-5.74.23-1.99.07-3.97.12-5.96.17-.7.02-1.47-.03-2.15.22-.73.27-.97.9-1.02,1.63-.12,1.7-.04,3.42-.46,5.09-.34,1.34-1.13,2.87-2.63,3.16-.69.13-1.46-.04-1.97-.53-.61-.58-.62-1.42-.59-2.2.07-1.93.04-3.85.26-5.78.18-1.6.5-3.3,1.55-4.58,1-1.21,2.51-1.76,4.01-2.08,1.88-.39,3.8-.56,5.7-.72,1.93-.16,3.86-.26,5.79-.26,1.91,0,3.81.08,5.71.25,1.88.17,3.8.27,5.64.77,1.43.39,2.74,1.24,3.36,2.62.7,1.55.68,3.31.72,4.98.02.94.03,1.87.03,2.81Z"/>
    <path class="cls-1" d="m15.33,37.85c0-1.1.18-2.43,1.01-3.23.49-.47,1.17-.59,1.82-.67.8-.09,1.5.16,1.99.82,1.02,1.35.97,3.36.82,4.96-.08.82-.24,1.75.07,2.55.28.72.94,1.04,1.66,1.16,1.77.29,3.66.06,5.44-.03,1.93-.09,3.86-.16,5.79-.23,1.87-.07,3.75-.1,5.62-.16.69-.02,1.44,0,2.08-.27.81-.35.81-1.12.85-1.89.1-1.67.04-3.4.56-5,.43-1.3,1.42-2.66,2.92-2.69.68-.01,1.37.26,1.78.82.47.64.41,1.52.37,2.26-.08,1.86-.05,3.72-.29,5.57-.21,1.54-.59,3.14-1.68,4.31-1.09,1.17-2.69,1.62-4.21,1.9-3.7.68-7.49.89-11.25.9-1.91,0-3.82-.08-5.72-.24-1.83-.15-3.68-.26-5.46-.72-1.4-.36-2.73-1.14-3.37-2.49-.73-1.52-.71-3.25-.76-4.9-.03-.91-.04-1.81-.03-2.72Z"/>
    <path class="cls-1" d="m12.09,30.95c-.88-.07-1.83.43-2.24,1.22-.43.82-.25,1.91.38,2.58.61.65,1.65.85,2.46.45.85-.42,1.24-1.41,1.19-2.31-.05-.98-.78-1.85-1.79-1.93Z"/>
    <path class="cls-1" d="m53.52,30.73c-.81-1.5-3.09-1.36-3.89.07-.48.86-.32,2,.36,2.71.73.76,1.99.87,2.87.29.99-.66,1.21-2.06.66-3.07Z"/>
  </g>
  <g>
    <path class="cls-1" d="m39.78,38.78s-.05.04-.07.06c-.14.13-.24.19-.41.09-.08-.05-.17-.1-.25-.15-.03-.02-.07-.04-.1-.06-.14-.05-.29-.08-.43-.14-.6-.24-1.23-.37-1.86-.51-.29-.06-.59-.05-.88-.11-.25-.05-.5,0-.75-.03-.02,0-.04-.02-.07-.02-.31,0-.61-.01-.92,0-.37.02-.74.05-1.11.12-.31.06-.63.08-.95.14-.11.02-.22.07-.34.1-.21.05-.4.01-.61-.06-.23-.07-.48-.1-.72-.14-.24-.04-.49-.08-.73-.09-.31-.02-.62,0-.94-.01-.11,0-.22-.06-.32-.05-.4.05-.79.02-1.19.06-.14.01-.27.07-.41.09-.19.03-.39.04-.58.07-.27.05-.55.07-.79.17-.25.11-.52.11-.76.24-.3.16-.63.28-.94.43-.16.08-.41-.06-.44-.26,0-.04,0-.09,0-.13,0-3.37,0-6.75,0-10.12,0-.24.06-.38.41-.39.32-.01.64,0,.95,0,0,0,.02-.02.03-.03,0-.09,0-.18,0-.27,0-.24.1-.36.34-.4.49-.08.98-.17,1.48-.22.41-.04.84-.03,1.25-.04.12,0,.25-.01.37,0,.07,0,.13.05.19.06.35.08.72.13,1.07.23.71.21,1.36.54,1.9,1.05.07.06.15.12.22.18.09.08.12-.02.16-.06.5-.46,1.07-.8,1.7-1.04.27-.1.55-.18.83-.25.71-.17,1.43-.21,2.16-.17.53.03,1.06.05,1.56.24.08.03.18.02.26.04.18.05.24.15.24.34,0,.1,0,.2,0,.31,0,0,.02.02.03.03.32,0,.63,0,.95,0,.2,0,.36.07.45.26v10.45Zm-2.39-1.84c-.13.02-.26.06-.38.05-.22,0-.43-.05-.64-.06-.58-.01-1.16-.02-1.73.09-.35.07-.71.15-1.06.22-.04,0-.08,0-.12.01,0,.01,0,.02,0,.03h.12c.43-.01.86-.02,1.29-.03.02,0,.04.02.07.02h.97c.06.03.11.06.17.07.33.06.67.11,1,.16.05.01.11.02.16.03.17.05.34.09.52.14.02,0,.04.02.07.02.43.13.87.27,1.32.41v-9.38h-.74v.19c0,2.52,0,5.03,0,7.55,0,.12.01.26-.03.36-.04.09-.14.2-.23.23-.24.07-.47-.06-.7-.09,0,0-.02-.02-.02-.03Zm-10.38.38h.16c.77-.1,1.55-.05,2.33-.02-.04-.03-.08-.04-.12-.05-.66-.2-1.34-.28-2.02-.31-.43-.01-.86.02-1.28.03-.05,0-.11.02-.16.02-.04,0-.09,0-.13,0-.07,0-.13.02-.2.02-.17.02-.34.04-.52.07-.16.03-.35-.05-.41-.21-.03-.09-.03-.2-.03-.3,0-2.56,0-5.12,0-7.68,0-.06,0-.12,0-.18h-.77v.19c0,2.98,0,5.95,0,8.93,0,.06-.01.11-.02.17-.02.1.02.12.11.09.16-.06.31-.12.47-.18.6-.2,1.2-.38,1.83-.47.25-.04.5-.09.76-.13Zm-1.74-.96s.02.02.03.03c.02,0,.04,0,.06,0,.42-.03.83-.07,1.25-.09.23-.01.47.03.7.03.49,0,.98.05,1.47.13.64.1,1.26.28,1.84.57.18.09.36.19.55.29,0-.08,0-.13,0-.19,0-2.51,0-5.02,0-7.53,0-.23-.08-.37-.24-.51-.09-.08-.19-.16-.28-.24l-.06-.03c-.15-.11-.31-.22-.46-.33-.02,0-.04-.02-.07-.03-.22-.11-.44-.23-.67-.32-.63-.24-1.28-.35-1.95-.36-.02,0-.04-.02-.07-.03-.72,0-1.42.06-2.13.2v.14c0,2.72,0,5.43,0,8.15,0,.04,0,.08,0,.11Zm6.57-6.96s0,.08,0,.11c0,2.56,0,5.12,0,7.68v.11c.54-.35,1.11-.55,1.7-.7.37-.1.76-.15,1.14-.21.16-.03.32-.02.48-.04.18-.02.35-.06.53-.06.36,0,.72.01,1.08.03.2,0,.4.05.6.06.13,0,.26,0,.39,0,0-.05,0-.06,0-.08,0-2.73,0-5.46,0-8.2,0-.02,0-.05,0-.06-.02-.04-.05-.1-.08-.1-.4-.06-.79-.16-1.19-.17-.13,0-.27-.06-.4-.05-.34.02-.68.08-1.02.09-.45.01-.87.14-1.28.27-.25.08-.49.2-.73.3-.08.03-.17.05-.24.09-.08.05-.14.12-.21.18-.2.17-.41.34-.62.51-.08.06-.16.11-.12.23Z"/>
    <path class="cls-1" d="m34.95,37.91s.04.02.07.02c-.02,0-.04-.02-.07-.02Z"/>
    <path class="cls-1" d="m27.45,27.77s-.04-.02-.07-.03c.02,0,.04.02.07.03Z"/>
    <path class="cls-1" d="m30.13,28.49s-.04-.02-.07-.03c.02,0,.04.02.07.03Z"/>
    <path class="cls-1" d="m30.65,28.84s-.04-.02-.06-.03c.02,0,.04.02.06.03Z"/>
  </g>
</svg>