<?xml version="1.0" encoding="UTF-8"?>
<svg id="Calque_1" data-name="Calque 1" xmlns="http://www.w3.org/2000/svg" viewBox="0 0 63.43 64.8">
  <defs>
    <style>
      .cls-1 {
        fill: #a77636;
      }
    </style>
  </defs>
  <path class="cls-1" d="m31.7,41.37c-1.44,0-2.88.01-4.32,0-.71,0-1.34-.28-1.9-.7-.25-.19-.5-.38-.74-.58-.21-.19-.33-.44-.48-.67-.58-.89-.69-1.86-.67-2.88.03-1.16,0-2.31.01-3.47,0-.67.25-1.27.56-1.88.48-.95,1.28-1.47,2.19-1.88.15-.07.2-.16.2-.32,0-.36.02-.73,0-1.09-.05-.75.06-1.49.27-2.2.2-.66.61-1.23,1.08-1.74.28-.31.59-.59.95-.82,1.38-.87,2.84-1.05,4.41-.61,1.54.43,2.53,1.47,3.23,2.82.28.53.36,1.15.39,1.75.03.61.02,1.22,0,1.82,0,.22.05.33.27.41.65.23,1.21.64,1.64,1.14.63.73,1.03,1.6,1.04,2.59.01,1.4,0,2.81,0,4.21,0,.63-.17,1.21-.45,1.77-.58,1.13-1.47,1.86-2.67,2.23-.21.07-.43.11-.65.1-1.45,0-2.9,0-4.35,0Zm0-1.6c1.32,0,2.64.01,3.96,0,1.36-.02,2.52-1.05,2.55-2.55.03-1.33.01-2.66,0-4,0-.53-.15-1.06-.47-1.47-.53-.69-1.27-1.1-2.16-1.1-2.58-.01-5.17-.04-7.75.01-1.52.03-2.58,1.05-2.6,2.65-.02,1.3-.02,2.59,0,3.89,0,.55.13,1.13.48,1.53.55.62,1.24,1.07,2.15,1.05,1.27-.03,2.55,0,3.82,0Zm.02-10.75h0c1.1,0,2.2,0,3.29,0,.26,0,.35-.08.33-.34-.02-.31-.01-.63,0-.95.05-1.18-.4-2.15-1.24-2.95-.88-.83-1.97-1.08-3.11-.85-1.29.27-2.17,1.12-2.66,2.34-.32.78-.19,1.61-.22,2.42-.01.25.07.32.32.32,1.1,0,2.2,0,3.29,0Z"/>
  <path class="cls-1" d="m44.61,22.3c-.36.04-.75-.1-1.12-.27-.15-.07-.25-.08-.36.06-.49.6-1.13,1.07-1.63,1.67-.23.28-.56.49-.81.77-.32.35-.67.67-1.01,1.01-.15.15-.24.17-.39,0-.23-.26-.47-.51-.73-.73-.21-.18-.17-.29.01-.46,1.11-1.1,2.21-2.21,3.32-3.3.19-.18.2-.32.11-.56-.46-1.16-.23-2.17.63-3.11.92-1.01,2.5-1.18,3.53-.47,1.5,1.01,1.97,2.78.78,4.33-.54.7-1.42,1.09-2.34,1.08Zm.09-1.62c.65,0,1.31-.67,1.3-1.31-.02-.66-.67-1.29-1.33-1.28-.62.02-1.25.67-1.26,1.29-.02.72.73,1.31,1.3,1.3Z"/>
  <path class="cls-1" d="m18.88,33.17c-.82,0-1.64,0-2.46,0-.2,0-.3.06-.38.26-.29.71-.75,1.29-1.48,1.59-.57.23-1.16.27-1.78.19-.95-.12-1.59-.7-2-1.47-.35-.66-.37-1.42-.2-2.21.31-1.44,2.24-2.44,3.58-1.94.79.29,1.49.71,1.79,1.57.11.3.29.41.62.4,1.57-.02,3.13,0,4.7-.02.3,0,.38.09.35.37-.03.3-.02.61,0,.91.02.27-.05.36-.34.36-.81-.02-1.61,0-2.42,0Zm-5.55.5c.86-.02,1.21-.53,1.28-1.27.07-.7-.52-1.26-1.24-1.27-.75,0-1.33.55-1.34,1.27,0,.63.64,1.27,1.29,1.28Z"/>
  <path class="cls-1" d="m44.56,31.55c.79,0,1.59-.01,2.38,0,.25,0,.37-.08.47-.3.14-.3.28-.64.5-.86.41-.41.93-.69,1.5-.85,1.19-.32,2.65.37,3.19,1.4.35.69.42,1.42.24,2.2-.2.87-.76,1.44-1.48,1.83-.58.31-1.24.32-1.91.21-1.02-.17-1.65-.8-2.04-1.69-.11-.26-.25-.33-.52-.33-1.6.01-3.2,0-4.8.01-.28,0-.37-.08-.34-.35.03-.31.03-.63,0-.95-.02-.26.04-.34.32-.33.83.02,1.66,0,2.49,0Zm5.46,2.12c.71.02,1.36-.58,1.37-1.27.02-.67-.55-1.25-1.26-1.27-.75-.03-1.35.5-1.31,1.23.04.77.4,1.25,1.2,1.31Z"/>
  <path class="cls-1" d="m21.64,19.45c.05.38-.08.76-.25,1.11-.09.19-.06.28.08.42.85.84,1.7,1.69,2.55,2.54.25.25.5.52.76.76.14.13.12.21,0,.33-.27.25-.54.51-.79.79-.15.16-.23.16-.39,0-.82-.84-1.65-1.66-2.48-2.49-.22-.22-.49-.38-.66-.65-.17-.27-.38-.31-.7-.17-.96.42-1.9.27-2.71-.34-1.22-.91-1.71-2.45-.79-3.88.93-1.44,2.6-1.89,4.07-.89.83.56,1.35,1.37,1.3,2.47Zm-1.62-.08c0-.64-.65-1.27-1.3-1.28-.63,0-1.29.65-1.29,1.28,0,.73.72,1.31,1.3,1.3.61,0,1.31-.61,1.29-1.31Z"/>
  <path class="cls-1" d="m32.52,45.69c0,.65,0,1.31,0,1.96,0,.19.05.28.23.36.53.23,1.04.54,1.34,1.03.45.76.66,1.58.4,2.5-.48,1.68-2.33,2.47-3.69,1.96-.59-.22-1.15-.56-1.46-1.09-.54-.89-.7-1.86-.25-2.89.32-.74.9-1.16,1.56-1.5.21-.11.26-.22.26-.42,0-1.27,0-2.55-.01-3.82,0-.29.08-.36.36-.33.31.03.63.03.95,0,.3-.03.34.09.33.35-.02.63,0,1.26,0,1.89Zm.42,5.04c0-.73-.53-1.29-1.24-1.29-.69,0-1.23.55-1.23,1.27,0,.75.51,1.3,1.22,1.31.7.01,1.25-.55,1.25-1.29Z"/>
  <path class="cls-1" d="m41.78,45.38c-.02-.42.08-.82.25-1.19.08-.18.09-.28-.09-.42-.24-.19-.42-.47-.64-.69-.42-.43-.89-.81-1.28-1.28-.11-.13-.18-.24,0-.34.35-.18.5-.54.78-.79.15-.13.24-.2.39-.01.52.66,1.22,1.13,1.74,1.79.15.2.36.36.71.2.48-.22,1.02-.18,1.55-.15,1.39.08,2.47,1.65,2.46,2.82-.02,2.2-2.39,3.62-4.32,2.55-.97-.54-1.46-1.4-1.52-2.5Zm2.9,1.25c.75-.06,1.25-.46,1.31-1.27.05-.63-.64-1.32-1.29-1.32-.63,0-1.3.64-1.29,1.28.01.78.53,1.23,1.27,1.3Z"/>
  <path class="cls-1" d="m30.9,18.48c0-.48,0-.96,0-1.44,0-.17-.05-.25-.22-.34-.45-.23-.95-.41-1.24-.87-.64-1.01-.8-2.02-.27-3.18.81-1.8,3.74-2.11,4.91-.32.59.91.7,1.88.23,2.94-.34.75-.92,1.14-1.6,1.45-.19.09-.19.2-.19.35,0,.93,0,1.87,0,2.8,0,.24-.06.33-.31.31-.36-.02-.72-.01-1.09,0-.18,0-.24-.05-.24-.24.01-.49,0-.98,0-1.47h0Zm2.05-4.45c0-.77-.53-1.34-1.24-1.34-.69,0-1.2.57-1.23,1.28-.05.99.54,1.28,1.23,1.29.69.01,1.32-.34,1.24-1.23Z"/>
  <path class="cls-1" d="m18.74,42.49c.43.01.85.03,1.26.22.27.12.42-.14.55-.29.34-.39.69-.75,1.09-1.08.19-.16.34-.37.51-.57.11-.13.2-.16.33-.02.27.29.55.57.84.84.13.12.1.2-.01.31-.28.26-.48.59-.81.81-.44.3-.67.84-1.13,1.13-.15.1,0,.21.03.3.45,1.12.33,2.16-.47,3.07-1.43,1.62-3.73,1.21-4.72-.45-.46-.77-.56-1.6-.21-2.41.48-1.12,1.32-1.94,2.73-1.87Zm-.02,1.55c-.64,0-1.31.67-1.27,1.3.05.81.53,1.26,1.29,1.27.75,0,1.26-.49,1.29-1.27.02-.66-.65-1.31-1.31-1.3Z"/>
  <path class="cls-1" d="m30.77,36.8c0-.44,0-.89,0-1.33,0-.15-.04-.25-.18-.34-.81-.52-.92-1.85-.28-2.59.59-.68,1.28-.87,2.09-.55.67.27,1.07.81,1.13,1.54.05.65-.18,1.21-.72,1.6-.14.1-.15.22-.15.36,0,.88,0,1.75,0,2.63,0,.33-.1.47-.44.45-.35-.02-.7-.02-1.05,0-.31.02-.41-.12-.4-.42.01-.46,0-.91,0-1.37Z"/>
</svg>